<svg id="Group_28" data-name="Group 28" xmlns="http://www.w3.org/2000/svg" width="374" height="324.091" viewBox="0 0 374 324.091">
  <path id="Path_100" data-name="Path 100" d="M307.773,713.572c3.408,11.383-1.881,23.02-1.881,23.02s-10.813-6.817-14.221-18.2,1.881-23.02,1.881-23.02S304.366,702.189,307.773,713.572Z" transform="translate(29.183 -413.523)" fill="#f2f2f2"/>
  <path id="Path_101" data-name="Path 101" d="M269.229,713.523c-2.868,11.53,2.963,22.906,2.963,22.906s10.48-7.319,13.348-18.849-2.963-22.906-2.963-22.906S272.1,701.992,269.229,713.523Z" transform="translate(62.553 -413.166)" fill="#f2f2f2"/>
  <path id="Path_102" data-name="Path 102" d="M393.63,621.22l-2.169-5.579,20.487-11.021,3.2,8.234Z" transform="translate(-232.28 -309.413)" fill="#ffb8b8"/>
  <path id="Path_103" data-name="Path 103" d="M647.9,726.382a7.509,7.509,0,0,1,9.724,4.28l1.463,3.761,2.256,5.805.551,1.423-7.229,2.812-6.992-17.992Z" transform="translate(-498.174 -429.13)" fill="#2f2e41"/>
  <path id="Path_104" data-name="Path 104" d="M488.889,709.832l.943,2.5,2.354,6.244.056.156c6,.771,12.574-.74,18.655-3.087a75.835,75.835,0,0,0,7.14-3.186c3.439-1.738,6.519-3.572,8.976-5.141,3.7-2.374,5.986-4.157,5.986-4.157s.6.546,1.7,1.482c1.466,1.254,3.807,3.212,6.773,5.517q1.7,1.328,3.645,2.778c9.57,7.1,21.852-11.843,21.852-11.843s-3.454-2.2-4.357-2.626c-2.906-1.375-9.732-4.619-15.621-7.5-3.034-1.487-5.816-2.882-7.684-3.873-6.614-3.521-14.835,3.142-14.835,3.142Z" transform="translate(-325.719 -408.763)" fill="#2f2e41"/>
  <path id="Path_105" data-name="Path 105" d="M488.889,709.832l.943,2.5,2.354,6.244.056.156c6,.771,12.574-.74,18.655-3.087a75.835,75.835,0,0,0,7.14-3.186c3.439-1.738,6.519-3.572,8.976-5.141,3.7-2.374,5.986-4.157,5.986-4.157s.6.546,1.7,1.482c1.466,1.254,3.807,3.212,6.773,5.517q1.7,1.328,3.645,2.778c9.57,7.1,21.852-11.843,21.852-11.843s-3.454-2.2-4.357-2.626c-2.906-1.375-9.732-4.619-15.621-7.5-3.034-1.487-5.816-2.882-7.684-3.873-6.614-3.521-14.835,3.142-14.835,3.142Z" transform="translate(-325.719 -408.763)" opacity="0.14"/>
  <ellipse id="Ellipse_9" data-name="Ellipse 9" cx="84.131" cy="84.131" rx="84.131" ry="84.131" transform="translate(200.236 0)" fill="#36baff"/>
  <path id="Path_106" data-name="Path 106" d="M369.872,175.331a84.138,84.138,0,0,1-140.188,89.042,84.139,84.139,0,1,0,140.188-89.042Z" transform="translate(-23.384 -147.393)" opacity="0.2"/>
  <path id="Path_107" data-name="Path 107" d="M179.45,172.311h-.231l-4.16,238.526h8.783Z" transform="translate(104.687 -88.18)" fill="#3f3d56"/>
  <rect id="Rectangle_24" data-name="Rectangle 24" width="4.16" height="15.717" transform="matrix(-0.466, -0.885, 0.885, -0.466, 285.118, 203.312)" fill="#3f3d56"/>
  <path id="Path_108" data-name="Path 108" d="M217.488,779.875H590.512a.488.488,0,1,0,0-.977H217.488a.488.488,0,1,0,0,.977Z" transform="translate(-217 -456.268)" fill="#3f3d56"/>
  <path id="Path_109" data-name="Path 109" d="M392.443,594.947h28.319a2.2,2.2,0,0,0,2.2-2.2V580.543a16.356,16.356,0,1,0-32.713,0V592.75A2.2,2.2,0,0,0,392.443,594.947Z" transform="translate(-133.546 -346.389)" fill="#2f2e41"/>
  <path id="Path_110" data-name="Path 110" d="M490.376,658.509a4.578,4.578,0,0,1,3.508,6.081l7.7,7.082-3.163,5.729-10.734-10.155a4.6,4.6,0,0,1,2.688-8.738Z" transform="translate(-258.411 -394.62)" fill="#ffb8b8"/>
  <path id="Path_111" data-name="Path 111" d="M435.494,682.234q.522,0,1.045-.045a12.3,12.3,0,0,0,9.91-6.619l12.337-23.745A6.813,6.813,0,0,0,447,645.007l-11.382,25.537-15.487-12.583-8.967,3.491,15.144,16.719a12.443,12.443,0,0,0,9.181,4.064Z" transform="translate(-180.357 -386.144)" fill="#ccc"/>
  <path id="Path_112" data-name="Path 112" d="M492.333,634.228l13.721-13.721a2.559,2.559,0,0,1,3.619,0l12.343,12.343a2.559,2.559,0,0,1,0,3.619L509.2,649.29a2.559,2.559,0,0,1-3.483.127l-13.244-11.442a2.559,2.559,0,0,1-.264-3.61Q492.266,634.294,492.333,634.228Z" transform="translate(-282.831 -374.828)" fill="#3f3d56"/>
  <path id="Path_113" data-name="Path 113" d="M280.138,521.411l14.123-14.123,11.655,11.655-13.575,13.574Z" transform="translate(-68.694 -259.604)" fill="#f2f2f2"/>
  <ellipse id="Ellipse_10" data-name="Ellipse 10" cx="5.735" cy="5.735" rx="5.735" ry="5.735" transform="translate(218.831 254.447)" fill="#36baff"/>
  <path id="Path_114" data-name="Path 114" d="M519.5,649.873a5.735,5.735,0,0,1,5.842-9.585,5.735,5.735,0,1,0-5.2,10.1A5.767,5.767,0,0,1,519.5,649.873Z" transform="translate(-297.491 -384.803)" opacity="0.1"/>
  <path id="Path_115" data-name="Path 115" d="M520.349,648.48c.684.643.72,2.956-.324,4.067a2.587,2.587,0,0,1-3.458-.043c-.684-.643-.063-1.173.981-2.285S519.665,647.837,520.349,648.48Z" transform="translate(-292.964 -389.438)" fill="#f2f2f2"/>
  <ellipse id="Ellipse_11" data-name="Ellipse 11" cx="1.699" cy="1.699" rx="1.699" ry="1.699" transform="translate(219.864 258.576)" fill="#2f2e41"/>
  <ellipse id="Ellipse_12" data-name="Ellipse 12" cx="1.699" cy="1.699" rx="1.699" ry="1.699" transform="translate(222.919 255.325)" fill="#2f2e41"/>
  <ellipse id="Ellipse_13" data-name="Ellipse 13" cx="0.425" cy="0.425" rx="0.425" ry="0.425" transform="translate(221.139 259.85)" fill="#f2f2f2"/>
  <ellipse id="Ellipse_14" data-name="Ellipse 14" cx="0.212" cy="0.212" rx="0.212" ry="0.212" transform="translate(221.168 259.017)" fill="#f2f2f2"/>
  <ellipse id="Ellipse_15" data-name="Ellipse 15" cx="0.212" cy="0.212" rx="0.212" ry="0.212" transform="translate(224.223 255.766)" fill="#f2f2f2"/>
  <ellipse id="Ellipse_16" data-name="Ellipse 16" cx="0.425" cy="0.425" rx="0.425" ry="0.425" transform="translate(224.193 256.6)" fill="#f2f2f2"/>
  <path id="Path_116" data-name="Path 116" d="M391.954,635.867l-2.591-5.4,19.579-12.563,3.824,7.964Z" transform="translate(-228.874 -316.215)" fill="#ffb8b8"/>
  <path id="Path_117" data-name="Path 117" d="M644.252,744.129a7.509,7.509,0,0,1,10.024,3.52l1.748,3.637,2.7,5.615.659,1.377-6.992,3.359-8.354-17.4Z" transform="translate(-493.876 -438.094)" fill="#2f2e41"/>
  <path id="Path_118" data-name="Path 118" d="M422,722.008l1.133,2.422,2.827,6.045.068.151c6.04.308,12.48-1.7,18.363-4.511a75.826,75.826,0,0,0,6.875-3.725c3.3-2,6.225-4.062,8.554-5.815,3.506-2.651,5.649-4.6,5.649-4.6s.644.5,1.807,1.348c1.557,1.138,4.043,2.91,7.177,4.98q1.794,1.194,3.847,2.49c10.087,6.342,24.432,14.067,36.634,15.7,21.429,2.866,16.386-25.731,16.386-25.731L514.269,701.9l-7.241,1.47L498.967,705l-2.856.581s-.542-.205-1.474-.562c-3-1.147-10.058-3.857-16.151-6.279-3.139-1.25-6.02-2.427-7.958-3.271-6.865-3-14.55,4.272-14.55,4.272Z" transform="translate(-257.933 -413.2)" fill="#2f2e41"/>
  <path id="Path_119" data-name="Path 119" d="M358.061,761.425a4.578,4.578,0,0,1-3.189-6.254l-7.324-7.471L351,742.141l10.195,10.7a4.6,4.6,0,0,1-3.136,8.587Z" transform="translate(-53.463 -437.458)" fill="#ffb8b8"/>
  <ellipse id="Ellipse_17" data-name="Ellipse 17" cx="11.418" cy="11.418" rx="11.418" ry="11.418" transform="translate(257.628 226.266)" fill="#ffb8b8"/>
  <path id="Path_120" data-name="Path 120" d="M436.861,651.2l-9.947,28.2.06.1c1.383,2.287,1.836,4.132,1.307,5.335a2.325,2.325,0,0,1-1.474,1.271L403.27,669.648l.824-6.594-.046-.074c-2.275-3.64-3.012-6.937-2.19-9.8a9.456,9.456,0,0,1,4.49-5.415l.082-.065,11.74-14.289,15.693,2.788Z" transform="translate(-152.96 -381.816)" fill="#ccc"/>
  <path id="Path_121" data-name="Path 121" d="M391.943,703.81l6.663-8.2-16.063-26.517-7.489-23.149-.232.075.232-.075a9.3,9.3,0,1,0-16.583,8.025l13.749,20.6Z" transform="translate(-92.915 -384.934)" fill="#ccc"/>
  <path id="Path_122" data-name="Path 122" d="M407.171,586.37h17.316l.178-2.486.888,2.486h2.666l.352-4.927,1.76,4.927h5.159v-.244a12.953,12.953,0,0,0-12.939-12.939H420.11a12.953,12.953,0,0,0-12.939,12.939Z" transform="translate(-154.341 -350.995)" fill="#2f2e41"/>
  <path id="Path_123" data-name="Path 123" d="M404.846,607.508a2.245,2.245,0,0,0,.389-.034l12.68-2.237V584.281H403.956l.346.4c4.808,5.607,1.186,14.7-1.4,19.62a2.165,2.165,0,0,0,.172,2.3A2.188,2.188,0,0,0,404.846,607.508Z" transform="translate(-134.558 -356.673)" fill="#2f2e41"/>
</svg>
