<svg xmlns="http://www.w3.org/2000/svg" width="1095.621" height="598.524" viewBox="0 0 1095.621 598.524">
  <g id="Group_390" data-name="Group 390" transform="translate(0 0.042)">
    <path id="Path_957" data-name="Path 957" d="M218.8,648.989c-23.347,19.908-28.193,52.559-28.193,52.559s33.007.375,56.354-19.533,28.193-52.559,28.193-52.559S242.147,629.08,218.8,648.989Z" transform="translate(-158.964 -103.95)" fill="#f2f2f2"/>
    <path id="Path_958" data-name="Path 958" d="M230.816,663.557c-9.945,29.026-38.537,45.522-38.537,45.522s-12.468-30.564-2.523-59.59,38.537-45.522,38.537-45.522S240.76,634.53,230.816,663.557Z" transform="translate(-160.19 -110.597)" fill="#f2f2f2"/>
    <path id="Path_959" data-name="Path 959" d="M438.412,322.561c-5.283-6.845-12.748-13.178-13.221-21.625-.433-7.747,5.343-15.439,2.907-22.85-1.873-5.7-8.053-9.137-14.092-10.958a54.768,54.768,0,0,0-35.2,1.355l.611-.431c-6.874-2.449-14.909.079-20.318,4.761s-8.623,11.172-11.117,17.675-4.427,13.245-7.892,19.342-8.772,11.642-15.773,13.749c2.344,4.675,9.67,6.279,13.967,3.057a17.67,17.67,0,0,0,2.939-3.038l8.6-10.455c2.949,5.245-1.457,12.484,2.168,17.339,1.869,2.5,5.283,3.455,8.453,4.137a152.907,152.907,0,0,0,74.805-2.775c1.955-.576,4.111-1.369,4.922-3.138C441.11,326.664,439.8,324.362,438.412,322.561Z" transform="translate(-124.09 -199.041)" fill="#2f2e41"/>
    <path id="Path_960" data-name="Path 960" d="M487.431,333.925a13.287,13.287,0,0,0-.3,2.068l-54.161,31.246L419.8,359.659l-14.034,18.374,22,15.681a10.086,10.086,0,0,0,12.1-.295l55.849-44.06a13.235,13.235,0,1,0-8.291-15.434Z" transform="translate(-102.847 -183.691)" fill="#ffb7b7"/>
    <path id="Path_961" data-name="Path 961" d="M436.661,364.709l-17.5,22.687a5.674,5.674,0,0,1-8.578.47l-19.817-20.578a15.757,15.757,0,1,1,19.324-24.894l24.854,13.9a5.674,5.674,0,0,1,1.722,8.417Z" transform="translate(-108.351 -179.682)" fill="#36baff"/>
    <path id="Path_962" data-name="Path 962" d="M241.289,472.6h15.458l7.353-59.621H241.286Z" transform="translate(62.93 107.721)" fill="#ffb7b7"/>
    <path id="Path_963" data-name="Path 963" d="M403.67,668.929h30.442a19.4,19.4,0,0,1,19.4,19.4v.631l-49.841,0Z" transform="translate(-103.395 -93.655)" fill="#2f2e41"/>
    <path id="Path_964" data-name="Path 964" d="M157.288,472.6h15.458l7.353-59.621H157.286Z" transform="translate(41.022 107.721)" fill="#ffb7b7"/>
    <path id="Path_965" data-name="Path 965" d="M319.67,668.929h30.442a19.4,19.4,0,0,1,19.4,19.4v.631l-49.841,0Z" transform="translate(-125.303 -93.655)" fill="#2f2e41"/>
    <circle id="Ellipse_86" data-name="Ellipse 86" cx="26.714" cy="26.714" r="26.714" transform="translate(238.914 135.817) rotate(-83.735)" fill="#ffb7b7"/>
    <path id="Path_966" data-name="Path 966" d="M410.22,333.391l15.738,7.8s17.584,30.558,7.5,59.557c-4.9,14.079,8.893,58.959,8.893,58.959s21.366,203.29,21.434,266.032c-26.544,4.081-51.761,9.124-53.022-3.484S395.7,560.569,395.7,560.569s-18.98,165.465-34.109,167.987-45.389-1.261-45.389-1.261,24.023-242.375,40.413-257.5l2.522-12.608-.067-113.174L377.951,335Z" transform="translate(-126.208 -181.167)" fill="#2f2e41"/>
    <path id="Path_967" data-name="Path 967" d="M350.292,499.346A13.545,13.545,0,0,0,354.441,479l18.3-122-23.912-1.148L334.564,477.343a13.618,13.618,0,0,0,15.728,22Z" transform="translate(-122.579 -175.31)" fill="#ffb7b7"/>
    <path id="Path_968" data-name="Path 968" d="M370.53,391.618l-28.6-1.805a5.674,5.674,0,0,1-5.192-6.845l5.959-27.94a15.757,15.757,0,1,1,31.445,2.078l2.4,28.375a5.674,5.674,0,0,1-6.011,6.138Z" transform="translate(-120.883 -179.363)" fill="#36baff"/>
    <path id="Path_969" data-name="Path 969" d="M1124.819,289.249H492.4A17.407,17.407,0,0,0,475,306.656V659.026A17.407,17.407,0,0,0,492.4,676.433h632.416a17.407,17.407,0,0,0,17.407-17.407V306.656A17.407,17.407,0,0,0,1124.819,289.249Z" transform="translate(-84.792 -192.68)" fill="#3f3d56"/>
    <rect id="Rectangle_153" data-name="Rectangle 153" width="620.554" height="350.057" transform="translate(413.542 127.332)" fill="#fff"/>
    <circle id="Ellipse_87" data-name="Ellipse 87" cx="6.365" cy="6.365" r="6.365" transform="translate(716.923 105.055)" fill="#fff"/>
    <path id="Path_970" data-name="Path 970" d="M771.082,451.04H328V100.983Z" transform="translate(85.546 26.349)" fill="#f2f2f2"/>
    <path id="Path_971" data-name="Path 971" d="M1165.134,587.326h-60.561v-4.364a.866.866,0,0,0-.865-.865h-20.764a.865.865,0,0,0-.865.865v4.364H1069.1v-4.364a.865.865,0,0,0-.865-.865h-20.764a.865.865,0,0,0-.865.865h0v4.364h-12.978v-4.364a.865.865,0,0,0-.865-.865H1012a.865.865,0,0,0-.865.865h0v4.364H998.156v-4.364a.865.865,0,0,0-.865-.865H976.527a.865.865,0,0,0-.865.865v4.364H962.685v-4.364a.865.865,0,0,0-.865-.865H941.055a.865.865,0,0,0-.865.865h0v4.364H927.213v-4.364a.865.865,0,0,0-.865-.865H905.582a.865.865,0,0,0-.865.865h0v4.364H891.74v-4.364a.865.865,0,0,0-.865-.865H728.223a.865.865,0,0,0-.865.865h0v4.364H714.38v-4.364a.865.865,0,0,0-.865-.865H692.751a.865.865,0,0,0-.865.865h0v4.364H678.907v-4.364a.865.865,0,0,0-.865-.865H657.278a.865.865,0,0,0-.865.865h0v4.364H643.436v-4.364a.865.865,0,0,0-.865-.865H621.806a.865.865,0,0,0-.865.865h0v4.364H607.964v-4.364a.865.865,0,0,0-.865-.865H586.335a.865.865,0,0,0-.865.865h0v4.364H572.491v-4.364a.865.865,0,0,0-.865-.865H550.862a.865.865,0,0,0-.865.865v4.364H537.019v-4.364a.865.865,0,0,0-.865-.865H515.39a.865.865,0,0,0-.865.865h0v4.364h-39.8a20.764,20.764,0,0,0-20.764,20.764v9.389a20.764,20.764,0,0,0,20.764,20.764h690.409a20.764,20.764,0,0,0,20.764-20.764v-9.39a20.764,20.764,0,0,0-20.764-20.763Z" transform="translate(-90.278 -116.301)" fill="#3f3d56"/>
    <path id="Path_972" data-name="Path 972" d="M756.351,557.007a15.236,15.236,0,0,1-.7,1.441,18.364,18.364,0,0,1-34.52-8.729v-2.964h2.515a64.227,64.227,0,0,0,32.7,10.252Z" transform="translate(-20.596 -125.519)" fill="#3f3d56"/>
    <path id="Path_973" data-name="Path 973" d="M784.812,547.443v2.1a18.356,18.356,0,0,1-34.476,8.788,15.373,15.373,0,0,1-.728-1.478c.537.015,1.066.022,1.6.022a64.324,64.324,0,0,0,33.6-9.428Z" transform="translate(-13.169 -125.34)" fill="#3f3d56"/>
    <path id="Path_974" data-name="Path 974" d="M797.5,371.691c-.551-.081-1.11-.132-1.669-.169a61.757,61.757,0,0,1,1.229,46.117c.558-.066,1.11-.154,1.662-.257a23.167,23.167,0,0,0-1.221-45.69Z" transform="translate(-1.115 -171.222)" fill="#3f3d56"/>
    <path id="Path_975" data-name="Path 975" d="M710.412,371.522c-.559.037-1.118.088-1.669.169a23.167,23.167,0,0,0-1.221,45.69c.552.1,1.1.191,1.662.257a61.762,61.762,0,0,1,1.228-46.117Z" transform="translate(-29.039 -171.222)" fill="#3f3d56"/>
    <path id="Path_976" data-name="Path 976" d="M822.3,379.688a63.237,63.237,0,1,0,4.905,24.415,63.237,63.237,0,0,0-4.905-24.415Zm-.441,45.948a61.758,61.758,0,1,1,3.875-21.533,61.758,61.758,0,0,1-3.875,21.533Z" transform="translate(-25.919 -179.219)" fill="#3f3d56"/>
    <path id="Path_977" data-name="Path 977" d="M792.594,379.647H727.878a12.87,12.87,0,0,0,0,25.739h64.715a12.87,12.87,0,0,0,0-25.739Z" transform="translate(-22.194 -169.103)" fill="#3f3d56"/>
    <path id="Path_978" data-name="Path 978" d="M822.461,485.241q-.353-.651-.728-1.28c-.007-.015-.015-.022-.022-.037a66.159,66.159,0,1,0-60.134,99.463c.7.037,1.4.059,2.11.059.295.015.581.015.875.015a65.7,65.7,0,0,0,33.6-9.185,66.625,66.625,0,0,0,25.695-27.614c.007-.015.015-.022.022-.037.221-.441.434-.89.647-1.346a66.091,66.091,0,0,0-2.066-60.038Zm.632,59.633q-.32.684-.662,1.346a65.167,65.167,0,0,1-24.268,26.342,64.324,64.324,0,0,1-33.6,9.428c-.537,0-1.066-.007-1.6-.022q-.342,0-.684-.022a64.713,64.713,0,1,1,57.965-97.61c.007.015.015.022.022.037.258.419.507.846.743,1.272a64.633,64.633,0,0,1,2.089,59.229Z" transform="translate(-26.52 -150.459)" fill="#3f3d56"/>
    <path id="Path_979" data-name="Path 979" d="M799.693,480.031a7.651,7.651,0,0,0-4.413-1.42H766.358a7.6,7.6,0,1,0,0,15.193h28.923a7.507,7.507,0,0,0,1.537-.154,8.35,8.35,0,0,0,1.471-.463,7.594,7.594,0,0,0,1.4-13.156Z" transform="translate(-10.782 -143.292)" fill="#3f3d56"/>
    <circle id="Ellipse_88" data-name="Ellipse 88" cx="3.857" cy="3.857" r="3.857" transform="translate(753.643 339.059)" fill="#f1f1f1"/>
    <circle id="Ellipse_89" data-name="Ellipse 89" cx="3.857" cy="3.857" r="3.857" transform="translate(766.178 339.059)" fill="#f1f1f1"/>
    <circle id="Ellipse_90" data-name="Ellipse 90" cx="3.857" cy="3.857" r="3.857" transform="translate(778.712 339.059)" fill="#36baff"/>
    <path id="Path_980" data-name="Path 980" d="M914.563,428.207c-10.03,6.015-27.9,13.552-46.16,5.806l-11.8-5.007,23.655-26.517a112.972,112.972,0,1,1,34.309,25.717Z" transform="translate(13.265 -212.404)" fill="#fff"/>
    <path id="Path_981" data-name="Path 981" d="M914.886,429.9c-9.638,5.658-28,13.478-46.714,5.538l-13.424-5.694,24.075-26.987a114.233,114.233,0,1,1,162.115,8.717h0A113.723,113.723,0,0,1,914.886,429.9Zm132.057-178.09a111.711,111.711,0,1,0-165.5,150.1l.762.84-23.238,26.05,10.185,4.32c18.077,7.668,35.965-.3,45.019-5.727l.585-.351.614.3a111.711,111.711,0,0,0,131.568-175.525Z" transform="translate(13.004 -212.665)" fill="#36baff"/>
    <path id="Path_982" data-name="Path 982" d="M1035.814,324.173A103.965,103.965,0,0,0,941.047,220.62c3.022-.266,6.085-.409,9.182-.409a103.962,103.962,0,1,1,0,207.924c-3.093,0-6.15-.145-9.174-.41A103.967,103.967,0,0,0,1035.814,324.173Z" transform="translate(36.76 -210.686)" opacity="0.1"/>
    <rect id="Rectangle_154" data-name="Rectangle 154" width="74.287" height="6.899" transform="translate(917.584 92.756)" fill="#36baff"/>
    <rect id="Rectangle_155" data-name="Rectangle 155" width="129.475" height="6.899" transform="translate(917.584 116.62)" fill="#36baff"/>
    <rect id="Rectangle_156" data-name="Rectangle 156" width="129.348" height="6.899" transform="translate(917.584 140.484)" fill="#36baff"/>
    <path id="Path_983" data-name="Path 983" d="M647.14,686.381H166.771a1.261,1.261,0,0,1,0-2.522H647.14a1.261,1.261,0,1,1,0,2.522Z" transform="translate(-165.51 -89.76)" fill="#cbcbcb"/>
    <path id="Path_984" data-name="Path 984" d="M412.789,291.6c-1.041-4.722-4.422-8.635-8.317-11.5a34.063,34.063,0,0,0-43.545,2.648,22.252,22.252,0,0,0-6.725,10.779,13.221,13.221,0,0,0,2.818,12.038l.534.334c-.484-2.053,1.111-4.1,3.015-5.009a24.092,24.092,0,0,1,6.151-1.379A22.612,22.612,0,0,0,382.047,288.7a25.537,25.537,0,0,0,14.635,15.251c3.531,1.381,13.228,3.279,16.589,1.526C417.559,303.243,413.83,296.327,412.789,291.6Z" transform="translate(-116.41 -196.793)" fill="#2f2e41"/>
  </g>
</svg>
