<svg xmlns="http://www.w3.org/2000/svg" xmlns:xlink="http://www.w3.org/1999/xlink" width="816.168" height="623.996" viewBox="0 0 816.168 623.996">
  <defs>
    <clipPath id="clip-path">
      <path id="Path_183" data-name="Path 183" d="M12.994,46.072H196A21.9,21.9,0,0,1,217.922,68V181.041A21.9,21.9,0,0,1,196,202.963H12.994A21.9,21.9,0,0,1-8.934,181.041V68A21.853,21.853,0,0,1,12.994,46.072Z" transform="translate(8.934 -46.072)"/>
    </clipPath>
    <clipPath id="clip-path-3">
      <path id="Path_187" data-name="Path 187" d="M159.8-13.741a3.547,3.547,0,0,0,.241-1.324l.461-.231A12.207,12.207,0,0,1,159.8-13.741Z" transform="translate(-159.798 15.296)"/>
    </clipPath>
    <clipPath id="clip-path-6">
      <path id="Path_191" data-name="Path 191" d="M157.538-53.51l.231-.155h0Z" transform="translate(-157.538 53.665)"/>
    </clipPath>
  </defs>
  <g id="Group_354" data-name="Group 354" transform="translate(-181.481 -228.435)">
    <g id="Group_53" data-name="Group 53" transform="translate(382.187 228.435)">
      <path id="Path_130" data-name="Path 130" d="M-19.011,215.3c-.448-2.388-.922-5.045-1.413-7.943l2.643-.448c.488,2.882.96,5.525,1.4,7.9ZM-21.7,199.392q-.579-3.8-1.153-7.983l2.657-.362q.567,4.154,1.145,7.94Zm-2.177-15.985q-.466-3.888-.9-8.012l2.665-.279q.426,4.1.893,7.972Zm-1.667-16.041q-.346-3.941-.641-8.042l2.673-.19q.29,4.077.638,8Zm-1.147-16.089q-.217-3.973-.367-8.058l2.678-.1q.149,4.057.365,8.01Zm-.6-16.124q-.072-3.929-.075-7.932l2.681-.134c0,2.788.027,5.415.075,8.018Zm2.689-16.089-2.681-.056q.08-4.013.249-8.074l2.678.113Q-24.52,115.075-24.6,119.063Zm.662-16.022-2.675-.169q.253-4.017.606-8.055l2.67.233Q-23.68,99.051-23.935,103.041Zm1.391-15.95-2.665-.3q.446-4,1-8.007l2.654.367Q-22.1,83.123-22.544,87.091Zm2.2-15.848-2.643-.442q.667-3.989,1.45-7.956l2.627.52Q-19.686,67.293-20.348,71.243Zm3.115-15.709-2.614-.606q.917-3.949,1.96-7.86l2.59.694Q-16.331,51.631-17.233,55.535Zm4.147-15.467-2.563-.788q1.194-3.884,2.533-7.7l2.528.887Q-11.911,36.238-13.086,40.067Zm5.305-15.092-2.49-.995c1.013-2.536,2.08-5.048,3.177-7.468l2.442,1.1C-5.731,20-6.784,22.474-7.781,24.975Zm6.589-14.553L-3.578,9.2C-2.342,6.787-1.04,4.39.3,2.074l2.321,1.34C1.306,5.69.025,8.049-1.192,10.422ZM366.519,5.629q-3.639-1.773-7.232-3.5l1.158-2.415q3.6,1.729,7.248,3.5ZM352.03-1.317q-3.663-1.725-7.281-3.4l1.126-2.431q3.623,1.677,7.3,3.4ZM6.793-3.37,4.55-4.837C6.029-7.1,7.587-9.343,9.174-11.493L11.332-9.9C9.774-7.793,8.249-5.6,6.793-3.37ZM337.447-8.059q-3.683-1.673-7.324-3.289l1.088-2.45q3.647,1.62,7.345,3.295Zm-14.674-6.519q-3.719-1.616-7.38-3.169l1.048-2.469q3.671,1.56,7.4,3.179ZM16.229-16.141,14.17-17.859c1.742-2.088,3.557-4.131,5.391-6.066l1.949,1.844C19.714-20.183,17.937-18.184,16.229-16.141Zm291.76-4.713q-3.744-1.552-7.431-3.04l1.005-2.485q3.7,1.5,7.452,3.048ZM293.1-26.864q-3.772-1.484-7.487-2.9l.952-2.506q3.732,1.423,7.514,2.909ZM27.153-27.676l-1.826-1.962c1.981-1.844,4.04-3.635,6.12-5.332l1.694,2.078C31.107-31.233,29.091-29.477,27.153-27.676Zm250.942-4.908q-3.8-1.4-7.541-2.74l.9-2.522q3.756,1.339,7.567,2.75ZM39.452-37.71,37.9-39.892c2.182-1.555,4.455-3.067,6.755-4.493l1.413,2.279C43.813-40.712,41.588-39.232,39.452-37.71Zm223.527-.273q-3.832-1.319-7.6-2.568l.842-2.544q3.784,1.255,7.634,2.579Zm-15.237-5.04q-3.864-1.222-7.661-2.372l.775-2.565q3.812,1.154,7.7,2.383ZM52.949-46.076,51.684-48.44c2.362-1.263,4.8-2.477,7.262-3.605l1.118,2.437C57.656-48.5,55.262-47.314,52.949-46.076Zm179.435-1.59q-3.9-1.118-7.726-2.155l.7-2.587q3.84,1.041,7.763,2.166Zm-15.478-4.193q-3.937-1-7.787-1.909l.617-2.611q3.876.917,7.83,1.922ZM67.384-52.711l-.973-2.5c2.493-.97,5.061-1.89,7.632-2.729l.831,2.549C72.349-54.563,69.829-53.662,67.384-52.711ZM201.3-55.547q-3.969-.865-7.849-1.635l.523-2.627q3.9.772,7.895,1.643ZM82.5-57.654l-.7-2.59c2.581-.694,5.23-1.335,7.87-1.9l.566,2.622C87.647-58.964,85.042-58.335,82.5-57.654Zm103.071-1.008q-4-.708-7.9-1.316l.41-2.648q3.933.611,7.959,1.327ZM98.067-61.026l-.442-2.643q3.924-.659,8-1.163l.33,2.659Q101.938-61.679,98.067-61.026Zm71.678-.094q-4.025-.535-7.948-.954l.284-2.665q3.957.422,8.015.962Zm-15.92-1.7q-4.049-.334-7.983-.536l.142-2.678q3.969.209,8.058.542Zm-39.931-.166-.22-2.673q3.961-.33,8.069-.512l.121,2.678Q117.806-63.314,113.894-62.988Zm23.957-.673c-1.994-.046-3.981-.083-5.911-.064q-1.049,0-2.086.011l-.027-2.681c.8-.005,1.608-.005,2.426-.011q2.795,0,5.656.064Z" transform="translate(27.361 66.406)" fill="#36baff"/>
    </g>
    <g id="Group_64" data-name="Group 64" transform="translate(181.481 236.891)" opacity="0.1">
      <path id="Path_143" data-name="Path 143" d="M-55.2,258.654c27.756,35.221,16.947,86.687-.7,127.964C-61.809,400.456-68.492,415-66,429.841c3.029,18.111,19.2,31.329,36.149,38.328C1.087,481,38.1,477.894,66.471,460.245c24.566-15.323,42.135-40.113,67.092-54.656,41.829-24.407,95-15.162,140.333,1.625,32.109,11.9,67.252,27.369,99.123,14.931,22.467-8.785,37.937-30.013,46.41-52.557,4.123-10.883,7.082-22.705,14.854-31.332,4.662-5.133,10.65-8.782,16.867-11.814,56.6-28.069,128.052-13.057,182.931-44.164,37.084-20.99,60.872-60.639,71.37-102s9.334-84.661,6.611-127.187c-1.866-30.246-5.286-62.508-24.649-85.907-20.279-24.8-55.348-33.977-87.068-29.233S539.854-40.591,514.591-20.92c-31.64,24.646-60.945,55.278-99.745,65.306-26.431,6.763-54.262,3.11-81.481,1.788C287.81,44,242.252,48.817,196.93,54.026,153.547,59,109.855,64.6,68.495,78.672c-29.233,9.951-52.635,28.067-80.31,40.738-17.96,8.243-37.551,10.495-54.656,20.99-20.995,12.985-40.272,35.454-34.83,61.886C-96.167,227.395-69.969,239.916-55.2,258.654Z" transform="translate(102.233 63.251)" fill="#21d6f4"/>
    </g>
    <g id="Group_65" data-name="Group 65" transform="translate(249.675 481.652)">
      <path id="Path_144" data-name="Path 144" d="M-.187,248.419c-.024-.751-3.024-75.53-42.95-117.2C-61.279,112.271-72.444,89.027-75.427,64a196.033,196.033,0,0,1-.946-35.942l5.351.351A190.555,190.555,0,0,0-70.1,63.365c2.844,23.863,13.508,46.046,30.838,64.151C2.095,170.68,5.065,245.087,5.172,248.234Z" transform="translate(76.794 -28.055)" fill="#535461"/>
    </g>
    <g id="Group_66" data-name="Group 66" transform="translate(226.142 433.427)">
      <path id="Path_145" data-name="Path 145" d="M-84.751,31.331c2.8,8.474,26.356,27.989,26.356,27.989s7.23-29.7,4.353-38.173A16.186,16.186,0,0,0-74.49,10.888,16.181,16.181,0,0,0-84.751,31.331Z" transform="translate(85.572 -10.065)" fill="#0a5dd3"/>
    </g>
    <g id="Group_67" data-name="Group 67" transform="translate(211.609 481.718)">
      <path id="Path_146" data-name="Path 146" d="M-85.437,56.485c7,5.6,37.317,9.176,37.317,9.176s-10.106-28.847-17.1-34.444a16.22,16.22,0,0,0-22.619,3.421A16.229,16.229,0,0,0-85.437,56.485Z" transform="translate(90.994 -28.079)" fill="#0a5dd3"/>
    </g>
    <g id="Group_68" data-name="Group 68" transform="translate(231.078 557.834)">
      <path id="Path_147" data-name="Path 147" d="M-69.966,88.685c8.862,1.324,36.851-10.892,36.851-10.892s-23.244-19.818-32.106-21.14A16.106,16.106,0,0,0-83.568,70.333a16.167,16.167,0,0,0,13.6,18.352Z" transform="translate(83.731 -56.474)" fill="#0a5dd3"/>
    </g>
    <g id="Group_69" data-name="Group 69" transform="translate(268.357 614.261)">
      <path id="Path_148" data-name="Path 148" d="M-58.664,109.127c8.474,2.807,38.173-4.514,38.173-4.514S-40.084,81.143-48.557,78.337A16.232,16.232,0,0,0-69.006,88.684a16.169,16.169,0,0,0,10.342,20.443Z" transform="translate(69.825 -77.524)" fill="#0a5dd3"/>
    </g>
    <g id="Group_70" data-name="Group 70" transform="translate(256.117 486.535)">
      <path id="Path_149" data-name="Path 149" d="M-43.213,53.545C-47.336,61.475-73.69,77.022-73.69,77.022s-2.41-30.476,1.71-38.4A16.216,16.216,0,0,1-50.135,31.7a16.225,16.225,0,0,1,6.921,21.847Z" transform="translate(74.39 -29.877)" fill="#0a5dd3"/>
    </g>
    <g id="Group_71" data-name="Group 71" transform="translate(290.867 548.357)">
      <path id="Path_150" data-name="Path 150" d="M-25.353,80.555c-6.3,6.3-36.074,13.291-36.074,13.291S-54.586,64.08-48.289,57.7a16.185,16.185,0,0,1,22.855-.08,16.209,16.209,0,0,1,.08,22.933Z" transform="translate(61.427 -52.939)" fill="#0a5dd3"/>
    </g>
    <g id="Group_72" data-name="Group 72" transform="translate(323.365 619.2)">
      <path id="Path_151" data-name="Path 151" d="M-15.954,105.331c-5.131,7.31-33.35,19.212-33.35,19.212s1.71-30.565,6.838-37.867a16.181,16.181,0,0,1,22.394-4.662,16.178,16.178,0,0,1,4.664,22.392,9.71,9.71,0,0,1-.547.925Z" transform="translate(49.304 -79.366)" fill="#0a5dd3"/>
    </g>
    <g id="Group_73" data-name="Group 73" transform="translate(301.997 433.122)">
      <path id="Path_152" data-name="Path 152" d="M-20.8,132.983l-5.351-.324c.024-.4,2.179-40.414-16.843-64.486a64.84,64.84,0,0,1-14.256-38.58A108.078,108.078,0,0,1-55.894,9.951l5.294.847a102.484,102.484,0,0,0-1.287,18.633,59.509,59.509,0,0,0,13.092,35.4C-18.475,90.542-20.689,131.262-20.8,132.983Z" transform="translate(57.275 -9.951)" fill="#535461"/>
    </g>
    <g id="Group_74" data-name="Group 74" transform="translate(293.361 406.811)">
      <path id="Path_153" data-name="Path 153" d="M-60.272,10.856C-59.184,15.6-47.52,27.337-47.52,27.337s5.444-15.626,4.353-20.368A8.739,8.739,0,0,0-53.662.362a8.747,8.747,0,0,0-6.611,10.495Z" transform="translate(60.497 -0.136)" fill="#0a5dd3"/>
    </g>
    <g id="Group_75" data-name="Group 75" transform="translate(282.751 431.786)">
      <path id="Path_154" data-name="Path 154" d="M-61.783,24.506c3.5,3.345,19.671,6.844,19.671,6.844s-3.965-16.095-7.463-19.435a8.794,8.794,0,0,0-12.363.155,8.749,8.749,0,0,0,.155,12.436Z" transform="translate(64.455 -9.452)" fill="#0a5dd3"/>
    </g>
    <g id="Group_76" data-name="Group 76" transform="translate(289.647 474.103)">
      <path id="Path_155" data-name="Path 155" d="M-55.22,42.527c4.664,1.163,20.448-3.965,20.448-3.965S-46.28,26.668-51.022,25.5a8.7,8.7,0,0,0-10.57,6.375A8.673,8.673,0,0,0-55.22,42.527Z" transform="translate(61.882 -25.239)" fill="#6c63ff"/>
    </g>
    <g id="Group_77" data-name="Group 77" transform="translate(306.705 506.371)">
      <path id="Path_156" data-name="Path 156" d="M-50.131,54.092c4.428,1.946,20.834-.466,20.834-.466S-38.626,39.943-43.06,38.077a8.842,8.842,0,0,0-11.658,4.276,8.84,8.84,0,0,0,4.278,11.658c.072.08.15.08.308.08Z" transform="translate(55.519 -37.276)" fill="#6c63ff"/>
    </g>
    <g id="Group_78" data-name="Group 78" transform="translate(305.56 437.105)">
      <path id="Path_157" data-name="Path 157" d="M-38.3,24.907C-40.94,28.95-55.946,36.024-55.946,36.024s.311-16.561,2.879-20.6A8.782,8.782,0,0,1-40.94,12.852,8.619,8.619,0,0,1-38.3,24.907Z" transform="translate(55.946 -11.437)" fill="#6c63ff"/>
    </g>
    <g id="Group_79" data-name="Group 79" transform="translate(321.111 472.493)">
      <path id="Path_158" data-name="Path 158" d="M-30.008,40.191c-3.731,3.11-20.137,5.286-20.137,5.286s5.209-15.706,8.94-18.816A8.763,8.763,0,0,1-28.844,27.83,8.768,8.768,0,0,1-30.008,40.191Z" transform="translate(50.145 -24.638)" fill="#6c63ff"/>
    </g>
    <g id="Group_80" data-name="Group 80" transform="translate(334.712 512.355)">
      <path id="Path_159" data-name="Path 159" d="M-26.1,54c-3.115,3.654-18.974,8.629-18.974,8.629S-42.581,46.3-39.4,42.568a8.753,8.753,0,0,1,12.361-.933A8.755,8.755,0,0,1-26.1,54Z" transform="translate(45.071 -39.509)" fill="#6c63ff"/>
    </g>
    <g id="Group_81" data-name="Group 81" transform="translate(293.361 406.811)" opacity="0.5">
      <path id="Path_160" data-name="Path 160" d="M-60.272,10.856C-59.184,15.6-47.52,27.337-47.52,27.337s5.444-15.626,4.353-20.368A8.739,8.739,0,0,0-53.662.362a8.747,8.747,0,0,0-6.611,10.495Z" transform="translate(60.497 -0.136)" fill="#0a5dd3"/>
    </g>
    <g id="Group_82" data-name="Group 82" transform="translate(282.751 431.786)" opacity="0.5">
      <path id="Path_161" data-name="Path 161" d="M-61.783,24.506c3.5,3.345,19.671,6.844,19.671,6.844s-3.965-16.095-7.463-19.435a8.794,8.794,0,0,0-12.363.155,8.749,8.749,0,0,0,.155,12.436Z" transform="translate(64.455 -9.452)" fill="#0a5dd3"/>
    </g>
    <g id="Group_83" data-name="Group 83" transform="translate(289.647 474.103)" opacity="0.5">
      <path id="Path_162" data-name="Path 162" d="M-55.22,42.527c4.664,1.163,20.448-3.965,20.448-3.965S-46.28,26.668-51.022,25.5a8.7,8.7,0,0,0-10.57,6.375A8.673,8.673,0,0,0-55.22,42.527Z" transform="translate(61.882 -25.239)" fill="#0a5dd3"/>
    </g>
    <g id="Group_84" data-name="Group 84" transform="translate(306.705 506.371)" opacity="0.5">
      <path id="Path_163" data-name="Path 163" d="M-50.131,54.092c4.428,1.946,20.834-.466,20.834-.466S-38.626,39.943-43.06,38.077a8.842,8.842,0,0,0-11.658,4.276,8.84,8.84,0,0,0,4.278,11.658c.072.08.15.08.308.08Z" transform="translate(55.519 -37.276)" fill="#0a5dd3"/>
    </g>
    <g id="Group_85" data-name="Group 85" transform="translate(305.56 437.105)" opacity="0.5">
      <path id="Path_164" data-name="Path 164" d="M-38.3,24.907C-40.94,28.95-55.946,36.024-55.946,36.024s.311-16.561,2.879-20.6A8.782,8.782,0,0,1-40.94,12.852,8.619,8.619,0,0,1-38.3,24.907Z" transform="translate(55.946 -11.437)" fill="#0a5dd3"/>
    </g>
    <g id="Group_86" data-name="Group 86" transform="translate(321.111 472.493)" opacity="0.5">
      <path id="Path_165" data-name="Path 165" d="M-30.008,40.191c-3.731,3.11-20.137,5.286-20.137,5.286s5.209-15.706,8.94-18.816A8.763,8.763,0,0,1-28.844,27.83,8.768,8.768,0,0,1-30.008,40.191Z" transform="translate(50.145 -24.638)" fill="#0a5dd3"/>
    </g>
    <g id="Group_87" data-name="Group 87" transform="translate(334.712 512.355)" opacity="0.5">
      <path id="Path_166" data-name="Path 166" d="M-26.1,54c-3.115,3.654-18.974,8.629-18.974,8.629S-42.581,46.3-39.4,42.568a8.753,8.753,0,0,1,12.361-.933A8.755,8.755,0,0,1-26.1,54Z" transform="translate(45.071 -39.509)" fill="#fff"/>
    </g>
    <g id="Group_88" data-name="Group 88" transform="translate(424.662 731.228)" opacity="0.2">
      <path id="Path_167" data-name="Path 167" d="M50.295,155.992H-11.516V121.157H50.295Zm-59.243-2.646h56.6V123.722h-56.6Z" transform="translate(11.516 -121.157)" fill="#6c63ff"/>
    </g>
    <g id="Group_89" data-name="Group 89" transform="translate(449.855 543.945)">
      <path id="Path_168" data-name="Path 168" d="M-2.118,58.212s1.946,70.429,3.965,79.374,30.787,35.763,45.636,36.776c0,0,15.861,37.7,33.741,31.718s19.826-37.7,10.886-41.676L32.637,126.7v-75.4Z" transform="translate(2.118 -51.293)" fill="#fdb797"/>
    </g>
    <g id="Group_90" data-name="Group 90" transform="translate(305.485 637.241)">
      <path id="Path_169" data-name="Path 169" d="M89.875,86.1s25.809,55.578,22.855,64.523-168.7,0-168.7,0,30.787-30.787,24.8-64.523Z" transform="translate(55.974 -86.096)" fill="#565171"/>
    </g>
    <g id="Group_91" data-name="Group 91" transform="translate(352.209 466.593)">
      <path id="Path_170" data-name="Path 170" d="M40.755,28.342S36.791,67.057,43.709,76,15.954,89.917,13,89.917-21.752,79.031-27.658,76-38.544,51.2-38.544,51.2-8.77,57.184.17,22.437Z" transform="translate(38.544 -22.437)" fill="#fdb797"/>
    </g>
    <g id="Group_92" data-name="Group 92" transform="translate(335.597 369.777)">
      <path id="Path_171" data-name="Path 171" d="M61.585-10.239C69.125-7.516,76.047-2.307,79.234,5c1.088,2.565,1.791,5.364,3.421,7.618,3.576,5.053,10.65,5.986,15.7,9.637,6.455,4.667,8.865,13.452,7.932,21.306-.855,7.927-4.512,15.156-8.088,22.308-3.731,7.466-7.618,15.081-13.84,20.759-2.874,2.643-6.375,5.053-7.307,8.865-.777,3.265.622,6.686.311,10.028-.7,8.24-10.573,12.05-18.813,12.982-3.573.391-7.7.391-10.184-2.177-1.324-1.319-1.946-3.11-2.724-4.745a22.848,22.848,0,0,0-30.632-10.339A23.315,23.315,0,0,0,4.83,111.2c-1.946,3.731-3.035,8.238-6.608,10.495-5.364,3.5-12.6-.622-16.558-5.6-3.965-5.053-6.844-11.353-12.519-14.384-1.785-.933-3.887-1.555-5.05-3.187-2.179-2.954-.316-7.307-1.788-10.57-1.088-2.488-3.812-3.887-5.442-6.066C-46.4,77.3-44.068,71.006-41.58,65.95l14.151-29.308c3.887-8.088,7.852-16.325,13.368-23.48C2.814-8.843,35.153-19.724,61.585-10.239Z" transform="translate(44.741 13.679)" fill="#7c5c5c"/>
    </g>
    <g id="Group_93" data-name="Group 93" transform="translate(311.988 491.313)" opacity="0.1">
      <path id="Path_172" data-name="Path 172" d="M40.16,67.419s-38.714,0-48.587-35.76L-41,56.924a21,21,0,0,0-8.007,14.462l-3.11,30.71s-3.5,11.433.466,18.352c0,0,41.207-10.42,42.14,1.474L-38.281,202.31s44.625,1.013,56.6-6.919c0,0,48.592,9.956,60.567-1.013s23.788-9.948,13.913-34.749c0,0,19.826-19.826,10.886-47.654-8.943-27.764-.469.456-.469.456s19.354-9.406,18.346-27.286l-1.946-17.883a10.234,10.234,0,0,0-.389-1.63c-6.064-23.555-22.308-36.54-45.169-28.222-6.686,2.41-13.524-.389-13.524-.389S67.993,69.438,40.16,67.419Z" transform="translate(53.548 -31.659)"/>
    </g>
    <g id="Group_94" data-name="Group 94" transform="translate(311.988 489.365)">
      <path id="Path_173" data-name="Path 173" d="M40.16,66.7S1.446,66.7-8.427,30.932L-41,56.2a21,21,0,0,0-8.007,14.462l-3.11,30.71s-3.5,11.433.466,18.352c0,0,41.207-10.42,42.215,1.474l-28.766,80.388s44.625,1.013,56.6-6.919c0,0,48.587,9.956,60.561-1.013C90.926,182.7,102.745,183.7,92.867,158.9c0,0,19.826-19.826,10.886-47.654-8.94-27.756-.466.469-.466.469s19.36-9.406,18.346-27.292l-1.941-17.88a10.96,10.96,0,0,0-.391-1.633c-6.064-23.558-22.314-36.537-45.169-28.219C67.444,39.1,60.6,36.3,60.6,36.3S67.993,68.641,40.16,66.7Z" transform="translate(53.548 -30.932)" fill="#b45181"/>
    </g>
    <g id="Group_95" data-name="Group 95" transform="translate(313.878 551.877)">
      <path id="Path_174" data-name="Path 174" d="M-52.843,61.249s2.021,70.432,3.965,79.366,30.787,35.763,45.636,36.7c0,0,15.861,37.7,33.739,31.71,17.88-5.975,19.826-37.7,10.886-41.66l-59.554-37.706V54.252Z" transform="translate(52.843 -54.252)" fill="#fdb797"/>
    </g>
    <g id="Group_96" data-name="Group 96" transform="translate(313.55 547.027)" opacity="0.1">
      <path id="Path_175" data-name="Path 175" d="M-9.956,66.78S-32.736,82.245-52.637,81c0,0-2.021-26.587,3.965-28.061C-42.684,51.377-16.874,52.862-9.956,66.78Z" transform="translate(52.966 -52.443)"/>
    </g>
    <g id="Group_97" data-name="Group 97" transform="translate(313.55 546.014)">
      <path id="Path_176" data-name="Path 176" d="M-9.956,66.394s-22.78,15.481-42.681,14.237c0,0-2.021-26.592,3.965-28.077C-42.684,51.01-16.874,52.484-9.956,66.394Z" transform="translate(52.966 -52.065)" fill="#b45181"/>
    </g>
    <g id="Group_98" data-name="Group 98" transform="translate(380.509 468.53)" opacity="0.1">
      <path id="Path_177" data-name="Path 177" d="M-19.669,23.16l40.66,5.986s-.933,8.94-1.088,19.279a45.712,45.712,0,0,1-47.89-7.771A45.327,45.327,0,0,0-19.669,23.16Z" transform="translate(27.987 -23.16)"/>
    </g>
    <g id="Group_99" data-name="Group 99" transform="translate(367.06 404.082)">
      <ellipse id="Ellipse_19" data-name="Ellipse 19" cx="45.636" cy="45.636" rx="45.636" ry="45.636" transform="translate(0 0)" fill="#fdb797"/>
    </g>
    <g id="Group_100" data-name="Group 100" transform="translate(356.798 388.681)" opacity="0.1">
      <path id="Path_178" data-name="Path 178" d="M7.01,45.625a14.717,14.717,0,0,0,6.144.858c8.088-.08,16.17-.391,24.18-.858,6.144-.391,12.6-1.169,17.339-5.053,6.372-5.286,7.385-15.159,4.04-22.7S48.764,4.732,41.687.456a48.822,48.822,0,0,0-12.832-5.83C15.795-8.95,1.338-4.6-9.079,4.187S-26.107,25.488-29.6,38.551c-1.244,4.509-2.8,9.953-7.23,11.272,2.954,4.978,10.259,5.755,15.548,3.265,7.7-3.651,11.661-17.725,18.58-19.9C4.989,30.777.48,42.591,7.01,45.625Z" transform="translate(36.832 6.627)"/>
    </g>
    <g id="Group_101" data-name="Group 101" transform="translate(356.796 387.668)">
      <path id="Path_179" data-name="Path 179" d="M7.012,45.246a14.717,14.717,0,0,0,6.144.858c8.088-.075,16.17-.391,24.18-.933,6.144-.391,12.6-1.169,17.338-5.053,6.372-5.286,7.385-15.159,4.04-22.7S48.766,4.275,41.689,0A51.246,51.246,0,0,0,28.857-5.753C15.794-9.326,1.337-4.976-9.08,3.809S-26.108,25.115-29.6,38.175c-1.244,4.509-2.8,9.948-7.23,11.272,2.954,4.975,10.259,5.753,15.548,3.265,7.7-3.656,11.661-17.727,18.58-19.9C4.991,30.4.482,42.217,7.012,45.246Z" transform="translate(36.833 7.005)" fill="#7c5c5c"/>
    </g>
    <g id="Group_102" data-name="Group 102" transform="translate(413.159 610.884)" opacity="0.1">
      <path id="Path_180" data-name="Path 180" d="M29.829,82.242a177.3,177.3,0,0,0-45.636-5.978" transform="translate(15.807 -76.264)"/>
    </g>
    <g id="Group_103" data-name="Group 103" transform="translate(356.56 563.302)" opacity="0.1">
      <path id="Path_181" data-name="Path 181" d="M-36.921,58.514s14.854,10.881,10.886,16.875" transform="translate(36.921 -58.514)"/>
    </g>
    <g id="Group_104" data-name="Group 104" transform="translate(313.57 700.598)">
      <rect id="Rectangle_79" data-name="Rectangle 79" width="422.697" height="151.833" fill="#e0e0e0"/>
    </g>
    <g id="Group_105" data-name="Group 105" transform="translate(313.57 708.603)" opacity="0.1">
      <rect id="Rectangle_80" data-name="Rectangle 80" width="422.697" height="23.788" transform="translate(0 0)"/>
    </g>
    <g id="Group_106" data-name="Group 106" transform="translate(285.814 683.729)">
      <rect id="Rectangle_81" data-name="Rectangle 81" width="477.275" height="40.658" transform="translate(0 0)" fill="#e0e0e0"/>
    </g>
    <g id="Group_107" data-name="Group 107" transform="translate(375.997 673.783)">
      <path id="Path_182" data-name="Path 182" d="M-24.617,99.728H56.548a5.042,5.042,0,0,1,5.053,5.056v2.788a5.042,5.042,0,0,1-5.053,5.056H-24.617a5.04,5.04,0,0,1-5.053-5.056v-2.788A5.038,5.038,0,0,1-24.617,99.728Z" transform="translate(29.67 -99.728)" fill="#535461"/>
    </g>
    <g id="Group_112" data-name="Group 112" transform="translate(431.583 529.95)" opacity="0.7">
      <g id="Group_111" data-name="Group 111">
        <g id="Group_110" data-name="Group 110">
          <g id="Group_108" data-name="Group 108" clip-path="url(#clip-path)">
            <rect id="Rectangle_82" data-name="Rectangle 82" width="226.923" height="84.722" transform="translate(-0.072 72.163)" fill="gray"/>
          </g>
          <g id="Group_109" data-name="Group 109" clip-path="url(#clip-path)">
            <rect id="Rectangle_83" data-name="Rectangle 83" width="226.923" height="72.169" transform="translate(-0.072 -0.005)" fill="gray"/>
          </g>
        </g>
      </g>
    </g>
    <g id="Group_113" data-name="Group 113" transform="translate(435.628 532.829)">
      <path id="Path_185" data-name="Path 185" d="M13.409,47.146H186.623A20.832,20.832,0,0,1,207.46,67.98V180.238a20.834,20.834,0,0,1-20.837,20.839H13.409A20.835,20.835,0,0,1-7.425,180.238V67.98A20.782,20.782,0,0,1,13.409,47.146Z" transform="translate(7.425 -47.146)" fill="#3e3f49"/>
    </g>
    <g id="Group_114" data-name="Group 114" transform="translate(438.582 532.829)">
      <path id="Path_186" data-name="Path 186" d="M14.511,47.146H187.727A20.833,20.833,0,0,1,208.559,67.98V180.238a20.832,20.832,0,0,1-20.831,20.839H14.511A20.833,20.833,0,0,1-6.323,180.238V67.98A20.832,20.832,0,0,1,14.511,47.146Z" transform="translate(6.323 -47.146)" fill="#535461"/>
    </g>
    <g id="Group_115" data-name="Group 115" transform="translate(805.122 548.725)" opacity="0.1">
      <ellipse id="Ellipse_20" data-name="Ellipse 20" cx="10.725" cy="86.374" rx="10.725" ry="86.374" transform="matrix(-0.161, -0.987, 0.987, -0.161, 3.454, 48.984)" fill="#0a5dd3"/>
    </g>
    <g id="Group_121" data-name="Group 121" transform="translate(883.896 365.443)" opacity="0.1">
      <g id="Group_120" data-name="Group 120">
        <g id="Group_119" data-name="Group 119">
          <g id="Group_116" data-name="Group 116" clip-path="url(#clip-path-3)">
            <rect id="Rectangle_84" data-name="Rectangle 84" width="0.702" height="0.054" transform="translate(-0.003 1.507)" fill="gray"/>
          </g>
          <g id="Group_117" data-name="Group 117" clip-path="url(#clip-path-3)">
            <rect id="Rectangle_85" data-name="Rectangle 85" width="0.702" height="0.818" transform="translate(-0.003 0.689)" fill="gray"/>
          </g>
          <g id="Group_118" data-name="Group 118" clip-path="url(#clip-path-3)">
            <rect id="Rectangle_86" data-name="Rectangle 86" width="0.702" height="0.869" transform="translate(-0.003 0.689)" fill="gray"/>
          </g>
        </g>
      </g>
    </g>
    <g id="Group_128" data-name="Group 128" transform="translate(877.694 266.537)">
      <path id="Path_194" data-name="Path 194" d="M157.628-44.324a12.576,12.576,0,0,0,.933,2.407,41.547,41.547,0,0,1,.541,31.023,75.861,75.861,0,0,1,8.4.466,18.4,18.4,0,0,0,8.243-.933,8.433,8.433,0,0,0,5.211-6.3c.541-3.887-2.335-7.31-4.823-10.264s-4.973-6.3-5.755-10.262c-.852-4.276.391-9.406-2.4-12.749a2.329,2.329,0,0,0-.936-.777,10.57,10.57,0,0,0-6.758.155C158.092-50.154,157.087-46.811,157.628-44.324Z" transform="translate(-157.484 52.192)" fill="#3e373a"/>
    </g>
    <g id="Group_129" data-name="Group 129" transform="translate(932.714 530.178)">
      <path id="Path_195" data-name="Path 195" d="M200.333,71.9a16.091,16.091,0,0,1-.936,3.8s-2.8,6.535-14.462,4.75c-7.621-1.171-7.541-4.67-6.3-7.46a14.6,14.6,0,0,1,2.1-3.27c1.091-1.563,1.011-7.391,1.4-12.674s2.8-5.6,2.8-5.6l.153,5.986c4.514-5.911,7.7,1.008,7.7,1.008s6.458.155,5.675-3.185c-.86-3.5-2.1-9.1-2.1-9.1s3.11,1.48,3.659,2.493-.078,14.612-.622,15.934a8.79,8.79,0,0,0,.775,5.836A1.966,1.966,0,0,1,200.333,71.9Z" transform="translate(-178.009 -46.157)" fill="#e7c7ca"/>
    </g>
    <g id="Group_130" data-name="Group 130" transform="translate(932.714 555.92)">
      <path id="Path_196" data-name="Path 196" d="M200.333,55.76a16.091,16.091,0,0,1-.936,3.8s-2.8,6.535-14.462,4.75c-7.621-1.171-7.541-4.67-6.3-7.46,1.091,1.547,3.5,2.791,8.634,2.327C195.2,58.636,198.626,57.312,200.333,55.76Z" transform="translate(-178.009 -55.76)" fill="#e7c7ca"/>
    </g>
    <g id="Group_131" data-name="Group 131" transform="translate(932.714 555.92)" opacity="0.1">
      <path id="Path_197" data-name="Path 197" d="M200.333,55.76a16.091,16.091,0,0,1-.936,3.8s-2.8,6.535-14.462,4.75c-7.621-1.171-7.541-4.67-6.3-7.46,1.091,1.547,3.5,2.791,8.634,2.327C195.2,58.636,198.626,57.312,200.333,55.76Z" transform="translate(-178.009 -55.76)"/>
    </g>
    <g id="Group_132" data-name="Group 132" transform="translate(939.073 521.903)">
      <path id="Path_198" data-name="Path 198" d="M194.167,60.213a6.347,6.347,0,0,1-4.431,6.061,8.527,8.527,0,0,1-7.46-1.163,4.49,4.49,0,0,1-1.874-4.123l.161-1.48.622-5.442.933-7.541s9.64-4.9,9.015-3.029c-.223.7.319,3.807,1.091,7.463.55,2.568,1.174,5.442,1.8,7.852A4.561,4.561,0,0,1,194.167,60.213Z" transform="translate(-180.381 -43.07)" fill="#be6f72"/>
    </g>
    <g id="Group_133" data-name="Group 133" transform="translate(938.549 534.568)" opacity="0.1">
      <path id="Path_199" data-name="Path 199" d="M180.189,51.886s8.321-9.8,15.162.933l-1.163,6.841h-14V51.886Z" transform="translate(-180.186 -47.795)"/>
    </g>
    <g id="Group_134" data-name="Group 134" transform="translate(938.549 535.269)">
      <path id="Path_200" data-name="Path 200" d="M180.189,52.147s8.321-9.8,15.162.933l-1.163,6.844h-14V52.147Z" transform="translate(-180.186 -48.056)" fill="#e7c7ca"/>
    </g>
    <g id="Group_135" data-name="Group 135" transform="translate(937.7 542.311)">
      <ellipse id="Ellipse_21" data-name="Ellipse 21" cx="0.852" cy="0.852" rx="0.852" ry="0.852" transform="translate(0 0)" fill="#4b4b5b"/>
    </g>
    <g id="Group_136" data-name="Group 136" transform="translate(938.252 548.449)">
      <path id="Path_201" data-name="Path 201" d="M180.917,52.973a.857.857,0,1,1-.842.86A.856.856,0,0,1,180.917,52.973Z" transform="translate(-180.075 -52.973)" fill="#4b4b5b"/>
    </g>
    <g id="Group_137" data-name="Group 137" transform="translate(937.697 545.342)">
      <ellipse id="Ellipse_22" data-name="Ellipse 22" cx="0.855" cy="0.855" rx="0.855" ry="0.855" transform="translate(0 0)" fill="#4b4b5b"/>
    </g>
    <g id="Group_138" data-name="Group 138" transform="translate(938.252 551.486)">
      <path id="Path_202" data-name="Path 202" d="M180.917,54.106a.855.855,0,1,1-.842.85A.854.854,0,0,1,180.917,54.106Z" transform="translate(-180.075 -54.106)" fill="#4b4b5b"/>
    </g>
    <g id="Group_139" data-name="Group 139" transform="translate(866.516 545.278)">
      <path id="Path_203" data-name="Path 203" d="M169.531,72.691l-11.5,3.89s-6.069-6.066-4.434-8.012c.7-.772,1.324-3.418,1.866-6.216.153-.852.311-1.793.391-2.638.383-2.726.622-5.053.622-5.053s13.368-6.458,11.192,0a15.319,15.319,0,0,0-.619,5.675,34.818,34.818,0,0,0,.7,5.675A63.348,63.348,0,0,0,169.531,72.691Z" transform="translate(-153.315 -51.79)" fill="#be6f72"/>
    </g>
    <g id="Group_140" data-name="Group 140" transform="translate(866.516 555.839)" opacity="0.1">
      <path id="Path_204" data-name="Path 204" d="M169.531,66.069l-11.5,3.89s-6.069-6.066-4.434-8.012c.7-.772,1.324-3.418,1.866-6.216a12.707,12.707,0,0,1,1.324,3.731c9.948,5.444,10.1,2.179,10.1,2.179a5.021,5.021,0,0,1,.86-2.327A60.7,60.7,0,0,0,169.531,66.069Z" transform="translate(-153.315 -55.73)"/>
    </g>
    <g id="Group_141" data-name="Group 141" transform="translate(846.354 555.437)">
      <path id="Path_205" data-name="Path 205" d="M184.738,75.268s-2.024,1.474-7.852,1.7a32.438,32.438,0,0,0-4.584.541,57.677,57.677,0,0,1-18.663.542,45.533,45.533,0,0,1-4.745-.925c-5.978-1.633-1.474-5.444-1.474-5.444s.311-.231.772-.619a15.835,15.835,0,0,1,6.619-3.11c3.731-.619,7.222-7.31,7.222-7.31l2.335-4.276c3.659-3.187,4.973,4.276,4.973,4.276,9.956,5.444,10.109,2.177,10.109,2.177.541-2.959,1.555-2.959,1.555-2.959s2.488,6.7,3.348,8.321a.948.948,0,0,0,.222.311C185.279,69.048,184.738,75.268,184.738,75.268Z" transform="translate(-145.793 -55.58)" fill="#e7c7ca"/>
    </g>
    <g id="Group_142" data-name="Group 142" transform="translate(846.354 568.125)">
      <path id="Path_206" data-name="Path 206" d="M184.738,67.312s-2.024,1.474-7.852,1.7a32.438,32.438,0,0,0-4.584.541,57.676,57.676,0,0,1-18.663.542,45.533,45.533,0,0,1-4.745-.925c-5.978-1.633-1.474-5.444-1.474-5.444s.311-.231.772-.619c3.429.772,9.176,2.016,12.835,1.793a103.25,103.25,0,0,0,10.65-1.252s9.326-2.959,12.749-3.34a.993.993,0,0,0,.231.311C185.279,61.093,184.738,67.312,184.738,67.312Z" transform="translate(-145.793 -60.313)" fill="#e7c7ca"/>
    </g>
    <g id="Group_143" data-name="Group 143" transform="translate(846.354 568.125)" opacity="0.1">
      <path id="Path_207" data-name="Path 207" d="M184.738,67.312s-2.024,1.474-7.852,1.7a32.438,32.438,0,0,0-4.584.541,57.676,57.676,0,0,1-18.663.542,45.533,45.533,0,0,1-4.745-.925c-5.978-1.633-1.474-5.444-1.474-5.444s.311-.231.772-.619c3.429.772,9.176,2.016,12.835,1.793a103.25,103.25,0,0,0,10.65-1.252s9.326-2.959,12.749-3.34a.993.993,0,0,0,.231.311C185.279,61.093,184.738,67.312,184.738,67.312Z" transform="translate(-145.793 -60.313)"/>
    </g>
    <g id="Group_144" data-name="Group 144" transform="translate(869.048 562.29)">
      <ellipse id="Ellipse_23" data-name="Ellipse 23" cx="0.858" cy="0.858" rx="0.858" ry="0.858" transform="translate(0 0)" fill="#4b4b5b"/>
    </g>
    <g id="Group_145" data-name="Group 145" transform="translate(864.226 564.702)">
      <ellipse id="Ellipse_24" data-name="Ellipse 24" cx="0.858" cy="0.858" rx="0.858" ry="0.858" fill="#4b4b5b"/>
    </g>
    <g id="Group_146" data-name="Group 146" transform="translate(866.791 563.458)">
      <ellipse id="Ellipse_25" data-name="Ellipse 25" cx="0.858" cy="0.858" rx="0.858" ry="0.858" fill="#4b4b5b"/>
    </g>
    <g id="Group_147" data-name="Group 147" transform="translate(861.507 566.096)">
      <ellipse id="Ellipse_26" data-name="Ellipse 26" cx="0.858" cy="0.858" rx="0.858" ry="0.858" fill="#4b4b5b"/>
    </g>
    <g id="Group_148" data-name="Group 148" transform="translate(869.053 545.375)" opacity="0.1">
      <path id="Path_208" data-name="Path 208" d="M166.075,54.678a15.293,15.293,0,0,0-.619,5.667c-3.032-1.013-7.924-.852-11.194-.541.383-2.718.622-5.056.622-5.056S168.251,48.22,166.075,54.678Z" transform="translate(-154.261 -51.826)"/>
    </g>
    <g id="Group_149" data-name="Group 149" transform="translate(939.954 521.906)" opacity="0.1">
      <path id="Path_209" data-name="Path 209" d="M191.671,50.88c-4.2,4.123-8.163,4.356-10.961,3.187l.936-7.541s9.637-4.9,9.015-3.029C190.358,44.122,190.9,47.231,191.671,50.88Z" transform="translate(-180.71 -43.071)"/>
    </g>
    <g id="Group_150" data-name="Group 150" transform="translate(860.466 390.555)">
      <path id="Path_210" data-name="Path 210" d="M168.429-5.928S161.821-2.2,160.65,5.114s-3.262,16.639-4.737,18.346-6.3,7.149-4.431,10.028,2.177,12.752,2.177,12.752-.7,8.785,1.166,11.658,3.418,21.225-.694,26.589c0,0-1.4,12.516-.861,13.76s-2.177,4.278-1.4,6.763,4.9,49.37,4.431,51.235c0,0,12.913-1.866,16.247,1.163a32.1,32.1,0,0,0,0-8.634c-.694-3.571.55-17.641,2.027-21.217s1.863-17.1,1.322-18.507c0,0,2.729-12.05,1.708-14.382-1.005-2.332,4.361-24.255,4.361-24.255s2.718-5.289,2.016-5.911c0,0,4.431-2.874,3.89-5.056s4.042-4.739,4.042-4.739,4.042,10.028,5.444,11.5c1.4,1.555,1.4,11.353,3.11,13.374s3.89,12.671,6.058,15.628c2.182,2.874,11.05,10.495,12.363,19.2,0,0,8.013,12.363,7.621,16.25s9.015,11.036,17.96-2.177a11.728,11.728,0,0,1-4.745-9.642c0-6.608-7.149-27.833-7.149-27.833s-4.05-5.908-2.568-8.785.153-11.347.153-11.347l3.27-5.289s.542-5.05,1.011-10.339-3.037-11.036-1.322-13.6-.7-15.24-.7-15.24-2.1-21.922-5.286-23.247S168.429-5.928,168.429-5.928Z" transform="translate(-151.058 5.928)" fill="#4b4b5b"/>
    </g>
    <g id="Group_151" data-name="Group 151" transform="translate(870.231 306.82)">
      <path id="Path_211" data-name="Path 211" d="M177.775,15.858s-3.493.391-7.693.783c-6.147.541-13.838,1.163-14.69.541-1.555-1.013,0-13.915,0-13.915s.541-14.073,0-23.949c-.391-8.007,4.895-13.84,6.841-15.781a7.534,7.534,0,0,1,.78-.7l1.708,1.324,9.645,16.481Z" transform="translate(-154.7 37.165)" fill="#be6f72"/>
    </g>
    <g id="Group_152" data-name="Group 152" transform="translate(893.275 277.926)">
      <path id="Path_212" data-name="Path 212" d="M201.111-20.135l-9.487,5.755L176-2.486s-16.089-8.474-12.055-13.371a7.7,7.7,0,0,0,1.485-3.345c1.244-5.678-1.485-13.84-1.485-13.84s21.231-28.688,19.987-6.452c-.472,8.943,2.177,13.762,5.525,16.406C194.5-19.047,201.111-20.135,201.111-20.135Z" transform="translate(-163.297 47.944)" fill="#be6f72"/>
    </g>
    <g id="Group_153" data-name="Group 153" transform="translate(882.272 259.479)" opacity="0.1">
      <ellipse id="Ellipse_27" data-name="Ellipse 27" cx="19.665" cy="20.834" rx="19.665" ry="20.834"/>
    </g>
    <g id="Group_154" data-name="Group 154" transform="translate(882.272 258.777)">
      <ellipse id="Ellipse_28" data-name="Ellipse 28" cx="19.665" cy="20.837" rx="19.665" ry="20.837" fill="#be6f72"/>
    </g>
    <g id="Group_155" data-name="Group 155" transform="translate(893.275 302.86)" opacity="0.1">
      <path id="Path_213" data-name="Path 213" d="M201.111-35.768l-9.487,5.755L176-18.119s-16.089-8.474-12.055-13.371a7.7,7.7,0,0,0,1.485-3.345c17.8,15.162,23.166-.541,24.1-3.807C194.5-34.68,201.111-35.768,201.111-35.768Z" transform="translate(-163.297 38.642)"/>
    </g>
    <g id="Group_156" data-name="Group 156" transform="translate(877.296 306.975)" opacity="0.1">
      <path id="Path_214" data-name="Path 214" d="M173.345,15.761s-3.493.391-7.693.783c-.153-3.656-.694-7.777-.619-10.264.15-4.276.15-4.745-1.166-7.155s-1.174-4.273-1.013-7.307c.161-2.954-.619-3.5-3.348-8.163l-.383-.622c-1.322-2.332-1.708-6.53-1.785-10.495v-.08c0-.933,0-1.866.078-2.718v-.08a55.74,55.74,0,0,1,.464-6.064,7.893,7.893,0,0,1,.78-.7l1.708,1.324L170-19.3Z" transform="translate(-157.336 37.107)"/>
    </g>
    <g id="Group_157" data-name="Group 157" transform="translate(873.122 302.277)">
      <path id="Path_215" data-name="Path 215" d="M228.128-31.28h0c-6.216-2.643-9.637,10.731-10.567,14.848-.161.777-.233,1.244-.233,1.244s.072,1.169.233,2.959c.461,5.986,1.244,19.435-.622,22.7-.161.311-.311.7-.464,1.088a23.657,23.657,0,0,0-.239,7.852c.319,2.954.86,5.908,1.482,8.865,0,0,4.034,10.339,2.407,17.1a25.445,25.445,0,0,0-.464,7.7,43.581,43.581,0,0,0,1.086,7c.161.7.231,1.088.231,1.088a72,72,0,0,1-7.541,2.177,70.33,70.33,0,0,1-14.532,1.946,65.08,65.08,0,0,1-41.834-13.218,6.446,6.446,0,0,1-.622-.541c-2.327-2.179,2.182-3.89,1.724-5.444s2.327-4.9,2.327-4.9-.622-5.6,1.946-6.763,4.431-5.286,5.828-8.629-.231-12.205-.07-16.4.153-4.745-1.174-7.149-1.166-4.278-1.013-7.31c.161-2.954-.619-3.5-3.34-8.163l-.391-.622c-1.322-2.332-1.708-6.53-1.785-10.495v-.08c0-.933,0-1.866.078-2.718v-.08c.153-3.731.544-6.763.544-6.763,13.6-6.994,16.789.311,16.789.311,19.826,17.1,24.338-4.273,24.338-4.273,10.876-3.9,25.027,6.056,25.879,6.678Z" transform="translate(-155.779 38.86)" fill="#e7c7ca"/>
    </g>
    <g id="Group_158" data-name="Group 158" transform="translate(870.317 356.714)">
      <path id="Path_216" data-name="Path 216" d="M155.024-17.134s-1.716,9.02,3.182,14.073a5.452,5.452,0,0,0,6.377,1.088c1.633-.777,3.5-2.021,4.131-3.5C170.108-8.424,165.9-23.117,155.024-17.134Z" transform="translate(-154.732 18.552)" fill="#be6f72"/>
    </g>
    <g id="Group_159" data-name="Group 159" transform="translate(933.815 328.825)" opacity="0.1">
      <path id="Path_217" data-name="Path 217" d="M178.884-6.253c-.161.311-.311.7-.464,1.088l.775-19.826.231-3.965C179.9-22.89,180.75-9.521,178.884-6.253Z" transform="translate(-178.42 28.956)"/>
    </g>
    <g id="Group_160" data-name="Group 160" transform="translate(910.442 360.387)" opacity="0.1">
      <path id="Path_218" data-name="Path 218" d="M196.808,8.944a25.618,25.618,0,0,0-.472,7.7c-1.091,2.021-2.019,3.651-2.638,4.739l-.78,1.324a34.579,34.579,0,0,0-2.729,4.123,8.709,8.709,0,0,0-1.166,3.34c0,2.646-2.635,19.982-15.081,15.628-8.085-2.8-2.951-11.353,1.716-17.028a55.338,55.338,0,0,1,4.973-5.442s1.4-1.866,2.8-3.731a19.661,19.661,0,0,0,2.4-3.887c.622-1.716,4.514-9.176,4.514-9.176s3.89-8.243,3.029-12.05c-.461-2.177-.541-7.385-.461-11.664A86.5,86.5,0,0,0,194.4-8.317C194.4-8.239,198.433,2.1,196.808,8.944Z" transform="translate(-169.701 17.182)"/>
    </g>
    <g id="Group_161" data-name="Group 161" transform="translate(910.176 309.665)">
      <path id="Path_219" data-name="Path 219" d="M204.9-35.911s6.069,4.276,5.916,15.24S208.63,9.413,208.63,9.413l-1.244,11.894s-1.627,4.823-1.324,6.3c.319,1.48-13.288,25.579-13.288,25.579s-3.882,4.9-3.882,7.466-2.646,19.982-15.084,15.626,6.68-22.469,6.68-22.469,4.672-5.908,5.294-7.616,4.506-9.176,4.506-9.176,3.882-8.24,3.037-12.05c-.86-3.809-.319-17.647-.319-17.647l.86-21.692.3-5.522C194.093-19.822,197.2-38.168,204.9-35.911Z" transform="translate(-169.602 36.104)" fill="#be6f72"/>
    </g>
    <g id="Group_162" data-name="Group 162" transform="translate(879.242 346.68)">
      <path id="Path_220" data-name="Path 220" d="M159.526-18.694l9.256-3.34a4.391,4.391,0,0,1,4.512.933L185.579-9.518s.7,1.866-.239,1.791-14.143-13.3-14.143-13.3l-13.135,4.431h0A2.391,2.391,0,0,1,159.526-18.694Z" transform="translate(-158.062 22.295)" fill="#0a5dd3"/>
    </g>
    <g id="Group_163" data-name="Group 163" transform="translate(879.312 347.949)">
      <path id="Path_221" data-name="Path 221" d="M172.631-3.939,185.3-8.523l-14.143-13.3-13.066,4.434Z" transform="translate(-158.088 21.822)" fill="#4b4b5b"/>
    </g>
    <g id="Group_164" data-name="Group 164" transform="translate(873.562 401.672)">
      <ellipse id="Ellipse_29" data-name="Ellipse 29" cx="1.166" cy="1.166" rx="1.166" ry="1.166" transform="translate(0 0)" fill="#e7c7ca"/>
    </g>
    <g id="Group_165" data-name="Group 165" transform="translate(865.861 416.207)">
      <ellipse id="Ellipse_30" data-name="Ellipse 30" cx="1.169" cy="1.169" rx="1.169" ry="1.169" transform="translate(0 0)" fill="#e7c7ca"/>
    </g>
    <g id="Group_166" data-name="Group 166" transform="translate(927.277 421.418)">
      <path id="Path_222" data-name="Path 222" d="M177.147,5.585a1.166,1.166,0,1,1-1.166,1.169A1.168,1.168,0,0,1,177.147,5.585Z" transform="translate(-175.981 -5.585)" fill="#e7c7ca"/>
    </g>
    <g id="Group_167" data-name="Group 167" transform="translate(933.655 441.944)">
      <ellipse id="Ellipse_31" data-name="Ellipse 31" cx="1.166" cy="1.166" rx="1.166" ry="1.166" transform="translate(0 0)" fill="#e7c7ca"/>
    </g>
    <g id="Group_168" data-name="Group 168" transform="translate(931.167 436.191)">
      <ellipse id="Ellipse_32" data-name="Ellipse 32" cx="1.166" cy="1.166" rx="1.166" ry="1.166" transform="translate(0 0)" fill="#e7c7ca"/>
    </g>
    <g id="Group_169" data-name="Group 169" transform="translate(928.993 428.803)">
      <ellipse id="Ellipse_33" data-name="Ellipse 33" cx="1.166" cy="1.166" rx="1.166" ry="1.166" fill="#e7c7ca"/>
    </g>
    <g id="Group_170" data-name="Group 170" transform="translate(869.439 408.511)">
      <ellipse id="Ellipse_34" data-name="Ellipse 34" cx="1.169" cy="1.169" rx="1.169" ry="1.169" transform="translate(0 0)" fill="#e7c7ca"/>
    </g>
    <g id="Group_171" data-name="Group 171" transform="translate(861.352 423.675)">
      <path id="Path_223" data-name="Path 223" d="M152.551,6.427a1.166,1.166,0,1,1-1.163,1.163A1.166,1.166,0,0,1,152.551,6.427Z" transform="translate(-151.388 -6.427)" fill="#e7c7ca"/>
    </g>
    <g id="Group_172" data-name="Group 172" transform="translate(877.918 302.227)">
      <path id="Path_224" data-name="Path 224" d="M225.121-31.248h0c-6.136-2.643-9.637,10.731-10.567,14.848l-9.64-13.76s-3.965,6.3-16.717,7.307-15.864-9.717-15.864-9.717c-1.785-.155-9.709,14.149-12.594,19.285l-.383-.627c-1.324-2.332-1.708-6.53-1.788-10.495v-.075c0-.933,0-1.866.08-2.724v-.075c.153-3.737.541-6.763.541-6.763,13.6-7,16.789.311,16.789.311,19.826,17.1,24.33-4.278,24.33-4.278C210.117-41.823,224.268-31.87,225.121-31.248Z" transform="translate(-157.568 38.878)" fill="#464353"/>
    </g>
    <g id="Group_173" data-name="Group 173" transform="translate(870.217 433.781)" opacity="0.1">
      <path id="Path_225" data-name="Path 225" d="M154.695,10.2c.161.389,14.379,16.869,19.673,17.725C179.647,28.777,154.695,10.2,154.695,10.2Z" transform="translate(-154.695 -10.197)"/>
    </g>
    <g id="Group_174" data-name="Group 174" transform="translate(875.963 408.591)" opacity="0.1">
      <path id="Path_226" data-name="Path 226" d="M161.282.8s.15,11.583-3.429,14.226S161.282.8,161.282.8Z" transform="translate(-156.838 -0.8)"/>
    </g>
    <g id="Group_175" data-name="Group 175" transform="translate(885.739 412.711)" opacity="0.1">
      <path id="Path_227" data-name="Path 227" d="M161.752,2.337s-.3,13.6,4.75,16.869C166.5,19.206,157.168,10.111,161.752,2.337Z" transform="translate(-160.486 -2.337)"/>
    </g>
    <g id="Group_176" data-name="Group 176" transform="translate(868.273 482.762)" opacity="0.1">
      <path id="Path_228" data-name="Path 228" d="M166.4,28.469s-9.476,6.994-12.117,7.541S166.4,28.469,166.4,28.469Z" transform="translate(-153.97 -28.469)"/>
    </g>
    <g id="Group_177" data-name="Group 177" transform="translate(877.173 244.406)" opacity="0.1">
      <path id="Path_229" data-name="Path 229" d="M158.5-37.367c-2.024,1.71-1.322,5.286.78,7s4.975,1.946,7.624,2.021c5.125.155,10.331-.155,15.384,1.088a12.719,12.719,0,0,1,5.913,3.032,12.787,12.787,0,0,1,3.032,6.144,32.057,32.057,0,0,1,1,10.184,34.867,34.867,0,0,0-.15,6.921,21.754,21.754,0,0,0,2.177,6.144A274.629,274.629,0,0,0,207.394,29.5a4.976,4.976,0,0,0,1.716,1.866c1.244.622,2.638,0,3.882-.622a34.85,34.85,0,0,1-1.244-7.385,3.413,3.413,0,0,0,3.509-1.244,9.789,9.789,0,0,0,1.547-3.576l2.254-7.852c.7-2.41,1.8-5.209,4.2-5.911a15.622,15.622,0,0,0,2.568-.622A3.385,3.385,0,0,0,227.373.889a6.279,6.279,0,0,0-1.547-3.421c-3.429-4.587-9.176-7.385-11.814-12.441-2.343-4.353-1.874-9.637-1.174-14.537s1.793-9.873.622-14.7a19.441,19.441,0,0,0-7.541-10.806,30.263,30.263,0,0,0-12.363-5.053,12.932,12.932,0,0,0-6.216,0c-1.555.547-2.871,1.557-4.353,2.179-3.418,1.4-7.383.541-10.961,1.474a14.919,14.919,0,0,0-8.085,5.83,30.572,30.572,0,0,0-4.281,9.251c-.622,2.177.391,3.035-1.547,4.2" transform="translate(-157.29 60.448)"/>
    </g>
    <g id="Group_178" data-name="Group 178" transform="translate(877.488 243.64)">
      <path id="Path_230" data-name="Path 230" d="M158.61-37.589c-2.019,1.71-1.316,5.289.772,7,2.1,1.71,4.981,1.941,7.621,2.021,5.136.155,10.347-.155,15.4,1.088a12.3,12.3,0,0,1,5.9,3.032,12.841,12.841,0,0,1,3.11,6.064A32.383,32.383,0,0,1,192.435-8.2a34.06,34.06,0,0,0-.161,6.919,21.24,21.24,0,0,0,2.177,6.144c3.965,8.318,8.315,16.4,13.065,24.335a4.32,4.32,0,0,0,1.708,1.866c1.244.622,2.646,0,3.89-.622a30.023,30.023,0,0,1-1.174-7.385,3.4,3.4,0,0,0,3.5-1.244,9.759,9.759,0,0,0,1.555-3.576l2.257-7.852c.7-2.41,1.785-5.209,4.19-5.911a15.238,15.238,0,0,0,2.568-.622A3.4,3.4,0,0,0,227.573.586a6.3,6.3,0,0,0-1.563-3.421c-3.41-4.587-9.168-7.385-11.814-12.441-2.327-4.353-1.866-9.637-1.166-14.535s1.788-9.873.622-14.7a19.481,19.481,0,0,0-7.541-10.806,30.263,30.263,0,0,0-12.363-5.053,12.043,12.043,0,0,0-6.216.08c-1.555.541-2.876,1.555-4.353,2.177-3.418,1.4-7.391.547-10.961,1.477a14.892,14.892,0,0,0-8.085,5.83,30.381,30.381,0,0,0-4.281,9.251c-.622,2.177.391,3.029-1.555,4.2" transform="translate(-157.407 60.734)" fill="#3e373a"/>
    </g>
    <g id="Group_179" data-name="Group 179" transform="translate(876.516 353.105)">
      <path id="Path_231" data-name="Path 231" d="M157.045-13.858s15.545-10.339,19.9-3.965-13.6,14.149-13.6,14.149Z" transform="translate(-157.045 19.898)" fill="#be6f72"/>
    </g>
    <g id="Group_180" data-name="Group 180" transform="translate(880.867 299.812)">
      <path id="Path_232" data-name="Path 232" d="M159.451-29.579c-.08,1.011-.241,2.254-.783,2.41,1.485,0,2.879,1.008,4.273.7a4.226,4.226,0,0,0,2.729-2.8,1.106,1.106,0,0,1,.383-.622.52.52,0,0,1,.472.075,47.549,47.549,0,0,1,7.771,5.911c.78.777,1.716,1.555,2.565,1.163a19.69,19.69,0,0,0-1.624-8.163,10.869,10.869,0,0,0-4.431-4.895,15.219,15.219,0,0,0-5.214-1.4,5.581,5.581,0,0,1-2.246-.541c-.783-.466-3.27-3.421-3.812-1.244a26.669,26.669,0,0,0,.07,4.353C159.6-32.844,159.529-31.214,159.451-29.579Z" transform="translate(-158.668 39.779)" fill="#3e373a"/>
    </g>
    <g id="Group_186" data-name="Group 186" transform="translate(877.588 252.014)" opacity="0.1">
      <g id="Group_181" data-name="Group 181" transform="translate(0 14.457)">
        <path id="Path_233" data-name="Path 233" d="M210.565,15.035a4.956,4.956,0,0,1-1.716-1.866,235.817,235.817,0,0,1-13.066-24.335,22.275,22.275,0,0,1-2.169-6.141,33.963,33.963,0,0,1,.153-6.921,34.384,34.384,0,0,0-1.013-10.184,13.574,13.574,0,0,0-3.029-6.066,11.961,11.961,0,0,0-5.916-3.029c-4.973-1.244-10.251-1.013-15.384-1.088-2.646-.08-5.525-.311-7.621-2.021a5.279,5.279,0,0,1-1.708-5.6c-.161.155-.319.236-.472.391-2.016,1.71-1.244,5.286.775,6.921s4.973,1.941,7.621,2.021c5.133.155,10.339-.155,15.392,1.088a12.3,12.3,0,0,1,5.908,3.032A12.706,12.706,0,0,1,191.35-32.7a32.382,32.382,0,0,1,1.021,10.184,34.061,34.061,0,0,0-.161,6.919,21.24,21.24,0,0,0,2.177,6.144,271.914,271.914,0,0,0,13.138,24.335,4.4,4.4,0,0,0,1.713,1.866c1.244.622,2.638,0,3.89-.622-.078-.311-.239-.7-.316-1.013A3.183,3.183,0,0,1,210.565,15.035Z" transform="translate(-157.445 52.217)"/>
      </g>
      <g id="Group_182" data-name="Group 182" transform="translate(0.952 14.851)">
        <path id="Path_234" data-name="Path 234" d="M157.8-51.915l.231-.155h0Z" transform="translate(-157.8 52.07)"/>
      </g>
      <g id="Group_183" data-name="Group 183" transform="translate(2.115)">
        <path id="Path_235" data-name="Path 235" d="M158.617-44.469l-.225.155.225-.155h0c1.641-1.169.7-2.021,1.322-4.045a31.179,31.179,0,0,1,4.131-9.1,11.123,11.123,0,0,0-1.244,1.557,30.452,30.452,0,0,0-4.284,9.251,10.948,10.948,0,0,0-.308,2.718C158.392-44.239,158.465-44.394,158.617-44.469Z" transform="translate(-158.234 57.61)"/>
      </g>
      <g id="Group_184" data-name="Group 184" transform="translate(64.47 54.578)">
        <path id="Path_236" data-name="Path 236" d="M186.931-37.25c-.861.231-1.708.466-2.568.622A5.3,5.3,0,0,0,181.5-34.14a3.8,3.8,0,0,1,1.466-.777,15.239,15.239,0,0,0,2.568-.622,2.409,2.409,0,0,0,1.4-1.71Z" transform="translate(-181.495 37.25)"/>
      </g>
      <g id="Group_185" data-name="Group 185" transform="translate(55.836 73.236)">
        <path id="Path_237" data-name="Path 237" d="M178.274-29.746c0,.622.072,1.169.072,1.788A4.19,4.19,0,0,0,180.37-29.2c.239-.311.464-.7.7-1.088A3.051,3.051,0,0,1,178.274-29.746Z" transform="translate(-178.274 30.29)"/>
      </g>
    </g>
    <g id="Group_187" data-name="Group 187" transform="translate(872.782 355.821)" opacity="0.1">
      <path id="Path_238" data-name="Path 238" d="M155.652-17.581s4.123-1.635,6.458-1.244" transform="translate(-155.652 18.886)"/>
    </g>
    <g id="Group_188" data-name="Group 188" transform="translate(884.599 375.782)" opacity="0.1">
      <path id="Path_239" data-name="Path 239" d="M160.06-11.439s2.1,3.19,12.6,4.589S160.06-11.439,160.06-11.439Z" transform="translate(-160.06 11.439)"/>
    </g>
    <g id="Group_189" data-name="Group 189" transform="translate(880.789 387.832)" opacity="0.1">
      <path id="Path_240" data-name="Path 240" d="M158.639-6.944s9.487,8.318,24.568,5.289S158.639-6.944,158.639-6.944Z" transform="translate(-158.639 6.944)"/>
    </g>
    <g id="STYLE_COLOR" transform="translate(512.673 310.088)">
      <g id="Group_190" data-name="Group 190" transform="translate(31.251 6.608)">
        <path id="Path_241" data-name="Path 241" d="M91.206-33.481H37.4a4.586,4.586,0,0,0-4.428,4.667h0v5.286l30.321,9.953,32.262-9.953v-5.286A4.419,4.419,0,0,0,91.206-33.481Z" transform="translate(-32.974 33.481)" fill="#0364b8"/>
      </g>
      <g id="Group_191" data-name="Group 191" transform="translate(24.954 30.033)">
        <path id="Path_242" data-name="Path 242" d="M104.791,3.068a31.679,31.679,0,0,0,1.094-4.662,2.335,2.335,0,0,0-1.013-1.946h-.08l-33.9-20.445a.668.668,0,0,0-.466-.231h0a4.44,4.44,0,0,0-4.2,0h0c-.155.075-.311.231-.466.231L31.713-3.459h-.08a2.32,2.32,0,0,0-1.008,1.941c.311,1.555.622,3.11,1.088,4.664l36,27.911Z" transform="translate(-30.625 24.743)" fill="#0a2767"/>
      </g>
      <g id="Group_192" data-name="Group 192" transform="translate(46.877 16.642)">
        <path id="Path_243" data-name="Path 243" d="M67.1-29.738H45.183L38.8-19.79l6.38,10.028,21.92,19.9H85.843v-19.9Z" transform="translate(-38.803 29.738)" fill="#28a8ea"/>
      </g>
      <g id="Group_193" data-name="Group 193" transform="translate(31.329 16.642)">
        <rect id="Rectangle_89" data-name="Rectangle 89" width="21.928" height="19.979" fill="#0078d4"/>
      </g>
      <g id="Group_194" data-name="Group 194" transform="translate(75.176 16.642)">
        <rect id="Rectangle_90" data-name="Rectangle 90" width="18.738" height="19.979" fill="#50d9ff"/>
      </g>
      <g id="Group_195" data-name="Group 195" transform="translate(31.329 36.618)">
        <path id="Path_244" data-name="Path 244" d="M76.851-2.385l-21.92-19.9H33v19.9L54.931,17.6l33.9,5.908Z" transform="translate(-33.003 22.286)" fill="#0364b8"/>
      </g>
      <g id="Group_196" data-name="Group 196" transform="translate(31.409 16.642)">
        <line id="Line_3" data-name="Line 3" x2="62.508" fill="none"/>
      </g>
      <g id="Group_197" data-name="Group 197" transform="translate(53.176 36.618)">
        <rect id="Rectangle_91" data-name="Rectangle 91" width="21.922" height="19.982" fill="#0078d4"/>
      </g>
      <g id="Group_198" data-name="Group 198" transform="translate(31.329 56.519)">
        <rect id="Rectangle_92" data-name="Rectangle 92" width="21.928" height="19.982" fill="#064a8c"/>
      </g>
      <g id="Group_199" data-name="Group 199" transform="translate(75.176 56.519)">
        <rect id="Rectangle_93" data-name="Rectangle 93" width="18.738" height="19.982" fill="#0078d4"/>
      </g>
      <g id="Group_200" data-name="Group 200" transform="translate(26.276 52.321)" opacity="0.5">
        <path id="Path_245" data-name="Path 245" d="M68.047,15.139,31.118-13.474l1.555-2.874S66.261,4.02,66.8,4.331a1.187,1.187,0,0,0,1.324-.08c.466-.231,34.2-20.679,34.2-20.679l1.563,2.876Z" transform="translate(-31.118 16.428)" fill="#0a2767"/>
      </g>
      <g id="Group_201" data-name="Group 201" transform="translate(60.564 53.179)">
        <path id="Path_246" data-name="Path 246" d="M82.465-14.165h0L48.5,6.436a4.425,4.425,0,0,1-4.587.311L55.728,23.539l25.89,5.986h0a4.979,4.979,0,0,0,1.941-4.04V-16.108A2.5,2.5,0,0,1,82.465-14.165Z" transform="translate(-43.909 16.108)" fill="#1490df"/>
      </g>
      <g id="Group_202" data-name="Group 202" transform="translate(60.484 73.549)" opacity="0.05">
        <path id="Path_247" data-name="Path 247" d="M83.529,12.792V10.384L52.275-8.509,48.466-6.255a4.425,4.425,0,0,1-4.587.311L55.7,10.848l25.887,5.986h0A5.205,5.205,0,0,0,83.529,12.792Z" transform="translate(-43.879 8.509)"/>
      </g>
      <g id="Group_203" data-name="Group 203" transform="translate(60.564 75.415)" opacity="0.1">
        <path id="Path_248" data-name="Path 248" d="M83.317,12.863,49.118-7.813l-.622.389a4.425,4.425,0,0,1-4.587.311L55.728,9.678l25.89,5.986h0A5.038,5.038,0,0,0,83.317,12.863Z" transform="translate(-43.909 7.813)"/>
      </g>
      <g id="Group_204" data-name="Group 204" transform="translate(25.112 53.179)">
        <path id="Path_249" data-name="Path 249" d="M31.692-14.087h0l-.075-.155a2.126,2.126,0,0,1-.933-1.866V25.485a4.814,4.814,0,0,0,4.742,4.975h65.687a3.135,3.135,0,0,0,1.174-.231c.153-.08.391-.155.541-.236.078,0,.078,0,.153-.075a4.062,4.062,0,0,0,.78-.472c.08-.075.08-.075.08-.153Z" transform="translate(-30.684 16.108)" fill="#28a8ea"/>
      </g>
      <g id="Group_205" data-name="Group 205" transform="translate(24.954 23.247)" opacity="0.1">
        <path id="Path_250" data-name="Path 250" d="M62.034,31.5V-22.843a4.334,4.334,0,0,0-4.2-4.431H37v13.3h0v11.5L31.713.712h-.08a2.33,2.33,0,0,0-1.008,1.946h0V35.853H57.759A4.1,4.1,0,0,0,62.034,31.5Z" transform="translate(-30.625 27.274)"/>
      </g>
      <g id="Group_206" data-name="Group 206" transform="translate(25.035 26.589)" opacity="0.2">
        <path id="Path_251" data-name="Path 251" d="M58.877,32.749V-21.6a4.336,4.336,0,0,0-4.2-4.431H37.03V-16h0V-4.493L31.741-1.306h-.075A2.323,2.323,0,0,0,30.655.635h0v36.62H54.676A4.459,4.459,0,0,0,58.877,32.749Z" transform="translate(-30.655 26.027)"/>
      </g>
      <g id="Group_207" data-name="Group 207" transform="translate(25.035 26.589)" opacity="0.2">
        <path id="Path_252" data-name="Path 252" d="M58.877,26.061V-21.6a4.336,4.336,0,0,0-4.2-4.431H37.03V-16h0V-4.493L31.741-1.306h-.075A2.323,2.323,0,0,0,30.655.635h0V30.57H54.676A4.461,4.461,0,0,0,58.877,26.061Z" transform="translate(-30.655 26.027)"/>
      </g>
      <g id="Group_208" data-name="Group 208" transform="translate(24.954 26.589)" opacity="0.2">
        <path id="Path_253" data-name="Path 253" d="M55.737,26.061V-21.6a4.334,4.334,0,0,0-4.2-4.431H37V-16h0V-4.493L31.713-1.306h-.08A2.32,2.32,0,0,0,30.625.635h0V30.57H51.459A4.319,4.319,0,0,0,55.737,26.061Z" transform="translate(-30.625 26.027)"/>
      </g>
      <g id="Back_Plate" transform="translate(0 26.589)">
        <path id="Path_254" data-name="Path 254" d="M25.511-26.027H67.26a4.285,4.285,0,0,1,4.2,4.431V22.8a4.334,4.334,0,0,1-4.2,4.431H25.511a4.285,4.285,0,0,1-4.2-4.431h0V-21.6a4.334,4.334,0,0,1,4.2-4.431Z" transform="translate(-21.316 26.027)" fill="#0078d4"/>
      </g>
      <g id="Group_209" data-name="Group 209" transform="translate(10.33 36.612)">
        <path id="Path_255" data-name="Path 255" d="M26.967-14.12A13.77,13.77,0,0,1,32.1-20.106a14.511,14.511,0,0,1,8.163-2.177,14.028,14.028,0,0,1,7.616,2.021,13.328,13.328,0,0,1,4.978,5.755,19.885,19.885,0,0,1,1.71,8.549,20.421,20.421,0,0,1-1.788,8.865,13.64,13.64,0,0,1-5.131,5.908,14.213,14.213,0,0,1-7.852,2.1,13.968,13.968,0,0,1-7.777-2.1,14.242,14.242,0,0,1-5.131-5.753,19.541,19.541,0,0,1-1.71-8.4A21.679,21.679,0,0,1,26.967-14.12ZM32.409.031A8.575,8.575,0,0,0,35.288,4,7.8,7.8,0,0,0,39.8,5.47,7.825,7.825,0,0,0,44.614,4a8.44,8.44,0,0,0,2.8-3.965,16.745,16.745,0,0,0,.858-5.522,20.013,20.013,0,0,0-.858-5.675,9.827,9.827,0,0,0-2.718-4.2,6.738,6.738,0,0,0-4.742-1.555,7.034,7.034,0,0,0-4.587,1.477A9.09,9.09,0,0,0,32.411-11.4a16.924,16.924,0,0,0,0,11.43Z" transform="translate(-25.17 22.288)" fill="#fff"/>
      </g>
      <g id="Group_210" data-name="Group 210" transform="translate(0)">
        <rect id="Rectangle_94" data-name="Rectangle 94" width="100.133" height="106.436" fill="none"/>
      </g>
    </g>
    <g id="Group_211" data-name="Group 211" transform="translate(657.512 415.587)">
      <path id="Path_256" data-name="Path 256" d="M177.268,3.488a8.919,8.919,0,0,1,9.1,8.629V14.6l-12.677,8.554L130.705,51.225l-43-28.3V79.6h-3.27a8.912,8.912,0,0,1-9.087-8.629V12.039A8.912,8.912,0,0,1,84.434,3.41l46.271,32.5,46.563-32.42Z" transform="translate(-75.347 -3.41)" fill="#e75a4d"/>
    </g>
    <g id="Group_214" data-name="Group 214" transform="translate(669.948 434.944)">
      <path id="Path_257" data-name="Path 257" d="M79.986,10.631V67.308h85.985V10.867L122.978,38.931Z" transform="translate(-79.986 -10.631)" fill="#e7e4d7"/>
    </g>
    <g id="Group_215" data-name="Group 215" transform="translate(669.948 463.247)">
      <path id="Path_258" data-name="Path 258" d="M79.986,49.644l42.992-28.3-.231-.155L79.986,49.022Z" transform="translate(-79.986 -21.189)" fill="#b8b7ae"/>
    </g>
    <g id="Group_216" data-name="Group 216" transform="translate(712.94 435.258)">
      <path id="Path_259" data-name="Path 259" d="M139.019,10.748V67.192l-43-28.3Z" transform="translate(-96.024 -10.748)" fill="#b7b6ad"/>
    </g>
    <g id="Group_217" data-name="Group 217" transform="translate(755.935 426.707)">
      <path id="Path_260" data-name="Path 260" d="M124.657,7.558V63.922c-.239,6.219-3.029,8.474-12.594,8.629V16.109l12.594-8.551Z" transform="translate(-112.063 -7.558)" fill="#b2392f"/>
    </g>
    <g id="Group_232" data-name="Group 232" transform="translate(666.76 415.665)">
      <path id="Path_261" data-name="Path 261" d="M78.8,3.439l46.26,32.5,46.485-32.5H78.8Z" transform="translate(-78.797 -3.439)" fill="#f7f5ed"/>
    </g>
    <g id="Group_233" data-name="Group 233" transform="translate(530.172 597.813)">
      <path id="Path_262" data-name="Path 262" d="M66.059,92.549,62.853,87.1,56.524,76.334l-2.887-4.9-3.579,4.386-1.89,2.3-5.659,6.93h0A5.212,5.212,0,1,1,43.569,81.9a5.336,5.336,0,0,1-.064.8l4.353-5.316A10.516,10.516,0,0,0,27.844,81.9a10.658,10.658,0,0,0,10.543,10.65,10.424,10.424,0,0,0,8.259-4.112h0l6.289-7.718L56.7,87.11l.078.145H48.4a.656.656,0,0,0,.032.088,6.888,6.888,0,0,0,6.728,5.219h5.621l-.008-.008h5.286Z" transform="translate(-27.844 -71.388)" fill="#e0e0e0"/>
    </g>
    <g id="Group_235" data-name="Group 235" transform="translate(792.898 284.198) rotate(39)">
      <path id="Path_280" data-name="Path 280" d="M1.045,7.8a1.317,1.317,0,0,0-.57,2.3l5.793,4.814a.856.856,0,0,1,.206.257.8.8,0,0,1,.079.318l.362,8.828a1.288,1.288,0,0,0,1.013,1.229l.01,0A1.286,1.286,0,0,0,9.383,24.9l2.09-3.811a.793.793,0,0,1,.708-.406.766.766,0,0,1,.562.249l10.028,10.7a1.307,1.307,0,0,0,1.15.4,1.321,1.321,0,0,0,.985-.713L39.61,1.907A1.317,1.317,0,0,0,38.161.028l-.476.1L1.045,7.8ZM.81,9.7a.791.791,0,0,1,.344-1.382L37.784.647l.488-.1a.792.792,0,0,1,.869,1.126L24.436,31.09a.79.79,0,0,1-1.281.186l-10.028-10.7a1.262,1.262,0,0,0-.342-.264L38.266,1.826a.527.527,0,0,0-.434-.941.461.461,0,0,0-.085.029L6.808,14.725a1.3,1.3,0,0,0-.2-.208L.81,9.7Z" transform="translate(0 0)" fill="#65c3f9"/>
      <path id="Path_281" data-name="Path 281" d="M1.045,7.8a1.317,1.317,0,0,0-.57,2.3l5.793,4.814a.856.856,0,0,1,.206.257.8.8,0,0,1,.079.318l.362,8.828a1.288,1.288,0,0,0,1.013,1.229l.01,0A1.286,1.286,0,0,0,9.383,24.9l2.09-3.811a.793.793,0,0,1,.708-.406.766.766,0,0,1,.562.249l10.028,10.7a1.307,1.307,0,0,0,1.15.4,1.321,1.321,0,0,0,.985-.713L39.61,1.907A1.317,1.317,0,0,0,38.161.028l-.476.1L1.045,7.8ZM.81,9.7a.791.791,0,0,1,.344-1.382L37.784.647l.488-.1a.792.792,0,0,1,.869,1.126L24.436,31.09a.79.79,0,0,1-1.281.186l-10.028-10.7a1.262,1.262,0,0,0-.342-.264,1.282,1.282,0,0,0-.6-.152c-.029,0-.059,0-.089,0h0a1.314,1.314,0,0,0-1.083.679l-2.09,3.814a.766.766,0,0,1-.868.388H8.048a.764.764,0,0,1-.607-.737L7.08,15.475a1.257,1.257,0,0,0-.04-.276v0a1.256,1.256,0,0,0-.094-.251,1.22,1.22,0,0,0-.139-.221,1.3,1.3,0,0,0-.2-.208L.81,9.7Z" transform="translate(0 0)" fill="#36baff"/>
      <path id="Path_282" data-name="Path 282" d="M.117,13.856,31.056.045a.455.455,0,0,1,.085-.029.527.527,0,0,1,.434.941L6.094,19.443l-.45.327-.308-.426.068-.052h0L31.265.53.35,14.327v0l-.135.058L0,13.908Z" transform="translate(6.691 0.869)" fill="#36baff"/>
    </g>
    <g id="Group_127" data-name="Group 127" transform="translate(877.838 262.589)" opacity="0.1">
      <g id="Group_126" data-name="Group 126">
        <g id="Group_125" data-name="Group 125">
          <g id="Group_122" data-name="Group 122" clip-path="url(#clip-path-6)">
            <path id="Path_190" data-name="Path 190" d="M157.539-53.609h0Z" transform="translate(-157.536 53.759)" fill="gray"/>
          </g>
          <g id="Group_123" data-name="Group 123" clip-path="url(#clip-path-6)">
            <rect id="Rectangle_87" data-name="Rectangle 87" width="0.231" height="0.094" transform="translate(0.003 0.054)" fill="gray"/>
          </g>
          <g id="Group_124" data-name="Group 124" clip-path="url(#clip-path-6)">
            <rect id="Rectangle_88" data-name="Rectangle 88" width="0.231" height="0.094" transform="translate(0.003 0.054)" fill="gray"/>
          </g>
        </g>
      </g>
    </g>
  </g>
</svg>
