<svg xmlns="http://www.w3.org/2000/svg" width="49.363" height="41.778" viewBox="0 0 49.363 41.778">
  <g id="Group_236" data-name="Group 236" transform="translate(-4108.281 -5775.321) rotate(-3)">
    <path id="Path_280" data-name="Path 280" d="M942.743,144.15a1.592,1.592,0,0,1,1.2,1.194,1.647,1.647,0,0,1-.521,1.633l-6.9,5.91a1.046,1.046,0,0,0-.245.316,1.009,1.009,0,0,0-.094.39l-.431,10.839a1.57,1.57,0,0,1-1.207,1.509l-.012,0a1.517,1.517,0,0,1-1.721-.8l-2.49-4.679a.94.94,0,0,0-.843-.5.9.9,0,0,0-.669.306l-11.95,13.138a1.532,1.532,0,0,1-1.371.494,1.578,1.578,0,0,1-1.174-.875L896.786,136.91a1.657,1.657,0,0,1,.16-1.712,1.545,1.545,0,0,1,1.567-.595l.568.122,43.663,9.425Zm.28,2.33a.989.989,0,0,0,.311-.981.956.956,0,0,0-.721-.716l-43.649-9.421-.581-.126a.929.929,0,0,0-.937.358,1,1,0,0,0-.1,1.025l17.522,36.119a.943.943,0,0,0,.706.524.925.925,0,0,0,.821-.3l11.95-13.138a1.511,1.511,0,0,1,.407-.324l-30.365-22.7a.659.659,0,0,1-.207-.8.623.623,0,0,1,.723-.357.538.538,0,0,1,.1.036l36.87,16.956a1.567,1.567,0,0,1,.243-.256l6.9-5.91Z" transform="translate(2903.644 5850.324)" fill="#65c3f9"/>
    <path id="Path_281" data-name="Path 281" d="M942.743,144.15a1.592,1.592,0,0,1,1.2,1.194,1.647,1.647,0,0,1-.521,1.633l-6.9,5.91a1.046,1.046,0,0,0-.245.316,1.009,1.009,0,0,0-.094.39l-.431,10.839a1.57,1.57,0,0,1-1.207,1.509l-.012,0a1.517,1.517,0,0,1-1.721-.8l-2.49-4.679a.94.94,0,0,0-.843-.5.9.9,0,0,0-.669.306l-11.95,13.138a1.532,1.532,0,0,1-1.371.494,1.578,1.578,0,0,1-1.174-.875L896.786,136.91a1.657,1.657,0,0,1,.16-1.712,1.545,1.545,0,0,1,1.567-.595l.568.122,43.663,9.425Zm.28,2.33a.989.989,0,0,0,.311-.981.956.956,0,0,0-.721-.716l-43.649-9.421-.581-.126a.929.929,0,0,0-.937.358,1,1,0,0,0-.1,1.025l17.522,36.119a.943.943,0,0,0,.706.524.925.925,0,0,0,.821-.3l11.951-13.138a1.509,1.509,0,0,1,.407-.324,1.492,1.492,0,0,1,.712-.187c.035,0,.071,0,.107,0h0a1.561,1.561,0,0,1,1.291.834l2.491,4.682a.9.9,0,0,0,1.035.477h.006a.932.932,0,0,0,.723-.905l.431-10.838a1.588,1.588,0,0,1,.047-.339v0a1.568,1.568,0,0,1,.112-.308,1.5,1.5,0,0,1,.165-.271,1.577,1.577,0,0,1,.243-.256l6.9-5.91Z" transform="translate(2903.644 5850.324)" fill="#36baff"/>
    <path id="Path_282" data-name="Path 282" d="M959.792,154.881l-36.87-16.956a.532.532,0,0,0-.1-.036.623.623,0,0,0-.724.357.659.659,0,0,0,.207.8l30.365,22.7.536.4.367-.523-.082-.064h0L922.674,138.52l36.84,16.939v0l.161.072.256-.59Z" transform="translate(2879.728 5848.09)" fill="#36baff"/>
  </g>
</svg>
