<svg xmlns="http://www.w3.org/2000/svg" width="606.736" height="643.937" viewBox="0 0 606.736 643.937">
  <g id="Group_358" data-name="Group 358" transform="translate(0 0)">
    <path id="Path_302" data-name="Path 302" d="M904.148,202.925h-3.3V112.464A52.357,52.357,0,0,0,848.49,60.107H656.836a52.357,52.357,0,0,0-52.357,52.356V608.741A52.357,52.357,0,0,0,656.836,661.1H848.489a52.357,52.357,0,0,0,52.357-52.356V267.317h3.3Z" transform="translate(-297.412 -60.108)" fill="#3f3d56"/>
    <path id="Path_303" data-name="Path 303" d="M853.65,76.6H828.633a18.576,18.576,0,0,1-17.2,25.592h-109.8a18.576,18.576,0,0,1-17.2-25.592H661.072a39.1,39.1,0,0,0-39.1,39.1V611.251a39.1,39.1,0,0,0,39.1,39.1H853.65a39.1,39.1,0,0,0,39.1-39.1h0V115.7a39.1,39.1,0,0,0-39.1-39.1Z" transform="translate(-300.46 -62.981)" fill="#fff"/>
    <path id="Path_304" data-name="Path 304" d="M782.5,697.576a74.2,74.2,0,1,1,54.872-24.289l15.5,17.371-7.733,3.28c-11.963,5.074-23.669.137-30.24-3.8a74.3,74.3,0,0,1-32.4,7.442Zm0-136.212A62.086,62.086,0,1,0,812.347,677.9l3.31-1.819,3.078,2.19a32.554,32.554,0,0,0,11.746,5.375l-9.751-10.931L825,668.7a61.5,61.5,0,0,0,19.581-45.25A62.157,62.157,0,0,0,782.5,561.365Z" transform="translate(-315.491 -145.307)" fill="#e6e6e6"/>
    <path id="Path_305" data-name="Path 305" d="M851.911,624.765a68.079,68.079,0,1,0-35.36,59.728c4.708,3.35,16.193,10.031,27.539,5.218L830.433,674.4A67.913,67.913,0,0,0,851.911,624.765Z" transform="translate(-316.797 -146.621)" fill="#fff"/>
    <rect id="Rectangle_109" data-name="Rectangle 109" width="48.665" height="4.519" transform="translate(431.932 464.219)" fill="#36baff"/>
    <rect id="Rectangle_110" data-name="Rectangle 110" width="84.82" height="4.519" transform="translate(431.932 479.853)" fill="#e6e6e6"/>
    <rect id="Rectangle_111" data-name="Rectangle 111" width="84.737" height="4.519" transform="translate(431.932 495.486)" fill="#e6e6e6"/>
    <path id="Path_306" data-name="Path 306" d="M782.5,298.576a74.2,74.2,0,1,1,54.872-24.289l15.5,17.371-7.733,3.28c-11.963,5.074-23.669.137-30.24-3.8A74.3,74.3,0,0,1,782.5,298.576Zm0-136.212A62.086,62.086,0,1,0,812.347,278.9l3.31-1.819,3.078,2.19a32.553,32.553,0,0,0,11.746,5.375l-9.751-10.931L825,269.7a61.5,61.5,0,0,0,19.581-45.25A62.157,62.157,0,0,0,782.5,162.364Z" transform="translate(-315.491 -75.796)" fill="#e6e6e6"/>
    <path id="Path_307" data-name="Path 307" d="M851.911,225.765a68.079,68.079,0,1,0-35.36,59.728c4.708,3.35,16.193,10.031,27.539,5.218L830.432,275.4A67.913,67.913,0,0,0,851.911,225.765Z" transform="translate(-316.797 -77.111)" fill="#fff"/>
    <rect id="Rectangle_112" data-name="Rectangle 112" width="48.665" height="4.519" transform="translate(431.932 134.73)" fill="#36baff"/>
    <rect id="Rectangle_113" data-name="Rectangle 113" width="84.82" height="4.519" transform="translate(431.932 150.363)" fill="#e6e6e6"/>
    <rect id="Rectangle_114" data-name="Rectangle 114" width="84.737" height="4.519" transform="translate(431.932 165.996)" fill="#e6e6e6"/>
    <circle id="Ellipse_39" data-name="Ellipse 39" cx="10.735" cy="10.735" r="10.735" transform="translate(550.609 207.641)" fill="#e6e6e6"/>
    <circle id="Ellipse_40" data-name="Ellipse 40" cx="10.735" cy="10.735" r="10.735" transform="translate(550.609 537.13)" fill="#e6e6e6"/>
    <path id="Path_308" data-name="Path 308" d="M614.8,500.657c-7.856,4.711-21.853,10.615-36.156,4.548l-9.246-3.922,18.528-20.77A88.488,88.488,0,1,1,614.8,500.657Z" transform="translate(-290.531 -107.575)" fill="#36baff"/>
    <path id="Path_309" data-name="Path 309" d="M746.939,421.887a81.434,81.434,0,0,0-74.229-81.111c2.367-.208,4.766-.321,7.192-.321a81.431,81.431,0,1,1,0,162.863c-2.422,0-4.817-.114-7.186-.321a81.435,81.435,0,0,0,74.223-81.11Z" transform="translate(-309.299 -108.948)" opacity="0.1"/>
    <rect id="Rectangle_115" data-name="Rectangle 115" width="58.187" height="5.404" transform="translate(316.24 296.701)" fill="#fff"/>
    <rect id="Rectangle_116" data-name="Rectangle 116" width="101.416" height="5.404" transform="translate(316.24 315.393)" fill="#fff"/>
    <rect id="Rectangle_117" data-name="Rectangle 117" width="101.317" height="5.404" transform="translate(316.24 334.086)" fill="#fff"/>
    <path id="Path_310" data-name="Path 310" d="M233.458,839.544H548.083a.826.826,0,0,0,0-1.652H233.458a.826.826,0,0,0,0,1.652Z" transform="translate(-232.632 -195.607)" fill="#ccc"/>
    <path id="Path_311" data-name="Path 311" d="M416.417,407.987l1.244-6.218s18.291-6.218,20.337,6.218Z" transform="translate(-264.649 -119.359)" fill="#e6e6e6"/>
    <path id="Path_312" data-name="Path 312" d="M226.293,754.34h11.991l5.7-46.252h-17.7Z" transform="translate(-39.423 -123.358)" fill="#9f616a"/>
    <path id="Path_313" data-name="Path 313" d="M455.222,819.465h23.616a15.05,15.05,0,0,1,15.049,15.048V835H455.223Z" transform="translate(-271.41 -192.397)" fill="#2f2e41"/>
    <path id="Path_314" data-name="Path 314" d="M156.293,754.34h11.991l5.7-46.252h-17.7Z" transform="translate(-27.228 -123.358)" fill="#9f616a"/>
    <path id="Path_315" data-name="Path 315" d="M385.222,819.465h23.616a15.05,15.05,0,0,1,15.049,15.048V835H385.223Z" transform="translate(-259.215 -192.397)" fill="#2f2e41"/>
    <path id="Path_316" data-name="Path 316" d="M157.981,380.881,144.3,379.637l-8.7,41.037,1.244,37.306,13.679,49.741,18.653-11.192-9.948-50.985Z" transform="translate(-23.623 -66.137)" fill="#2f2e41"/>
    <path id="Path_317" data-name="Path 317" d="M152.077,528.422l3.062,26.114,2.876,60.933-6.606,90.8L175.036,705,186.616,610.5l7.072-43.524,9.948,49.741,6.218,93.264,24.248-1.943V616.385l.622-66.823-8.7-26.114Z" transform="translate(-26.377 -91.191)" fill="#2f2e41"/>
    <path id="Path_318" data-name="Path 318" d="M434.466,409.694s-8.7-12.435-24.871-3.731l-7.461,9.948-23.627,17.409,4.974,58.446-6.218,73.368,88.291-1.244-14.922-73.368V412.181Z" transform="translate(-257.829 -119.821)" fill="#2f2e41"/>
    <path id="Path_319" data-name="Path 319" d="M154.422,404.632l-7.13,85.254,9-46.2Z" transform="translate(-25.66 -70.492)" opacity="0.25"/>
    <path id="Path_320" data-name="Path 320" d="M561.456,545.932a9.171,9.171,0,0,1-12.018-7.3L529.093,533.6l.04-13.11,28.633,7.5a9.221,9.221,0,0,1,3.691,17.938Z" transform="translate(-284.279 -140.312)" fill="#9f616a"/>
    <rect id="Rectangle_118" data-name="Rectangle 118" width="19.896" height="8.705" transform="matrix(0.172, -0.985, 0.985, 0.172, 252.48, 399.624)" fill="#e6e6e6"/>
    <circle id="Ellipse_41" data-name="Ellipse 41" cx="24.971" cy="24.971" r="24.971" transform="translate(128.909 240.603) rotate(-28.663)" fill="#9f616a"/>
    <path id="Path_321" data-name="Path 321" d="M425.443,379.589a25.33,25.33,0,0,1-16.572-47.608,29.62,29.62,0,0,1,13.986-2.51c7.468.393,14.727,3.153,22.2,2.949l1.084,1.742,4.084-.99.875,3.242,1.076-.037c1.927,3.581-1.173,8.707-5.239,8.664a24.194,24.194,0,0,1-4.706-1.025c-1.574-.337-3.428-.253-4.513.936-1.411,1.545-.8,3.956-.5,6.027s-.44,4.861-2.532,4.929c-1.068.035-2.084-.731-3.134-.53-1.223.235-1.841,1.711-1.662,2.943a11.71,11.71,0,0,0,1.463,3.415,13.755,13.755,0,0,1-5.456,17.547" transform="translate(-260.778 -107.023)" fill="#2f2e41"/>
    <path id="Path_322" data-name="Path 322" d="M456.862,418.947l5.935-4.8s11.979-.833,11.762,11.866l19.167,59.956L530.5,498.99l-4.955,25.6L473.518,504.77l-26.425-43.8Z" transform="translate(-269.993 -121.783)" fill="#2f2e41"/>
  </g>
</svg>
