<svg xmlns="http://www.w3.org/2000/svg" width="599.076" height="522.415" viewBox="0 0 599.076 522.415">
  <g id="Group_23" data-name="Group 23" transform="translate(-37.957 0)">
    <path id="Path_7" data-name="Path 7" d="M832.794,274.341h-.09l-51.519,22-70.489,30.1a2.274,2.274,0,0,1-1.741.009L636.23,296.277l-52.785-21.9-.081-.036h-.09a3.145,3.145,0,0,0-3.141,3.141V413.91a3.145,3.145,0,0,0,3.141,3.141H832.794a3.145,3.145,0,0,0,3.141-3.141V277.482a3.145,3.145,0,0,0-3.141-3.141Z" transform="translate(-275.934 -182.045)" fill="#fff"/>
    <path id="Path_8" data-name="Path 8" d="M833.8,241.546a.447.447,0,0,1-.256-.08L709.432,155.03a2.251,2.251,0,0,0-2.571,0l-123.219,86.43a.449.449,0,0,1-.516-.735L706.345,154.3a3.151,3.151,0,0,1,3.6-.006l124.113,86.436a.449.449,0,0,1-.257.817Z" transform="translate(-276.717 -148.353)" fill="#3f3d56"/>
    <path id="Path_9" data-name="Path 9" d="M435.67,99.79,553.254,12.645,671.731,105.99,559.313,172.633l-61.033-13.911Z" transform="translate(-121.704 -3.532)" fill="#e6e6e6"/>
    <path id="Path_10" data-name="Path 10" d="M664.143,435.933h-58.09a2.714,2.714,0,1,1-.008-5.428h58.1a2.714,2.714,0,0,1,.008,5.428Z" transform="translate(-282.416 -225.669)" fill="#36baff"/>
    <path id="Path_11" data-name="Path 11" d="M626.895,419.742H606.053a2.714,2.714,0,0,1-.008-5.428h20.849a2.714,2.714,0,1,1,.008,5.428Z" transform="translate(-282.416 -221.146)" fill="#36baff"/>
    <path id="Path_12" data-name="Path 12" d="M730.535,297.7a3.4,3.4,0,0,1-1.288-.252l-72.518-30.09V173.173a3.145,3.145,0,0,1,3.141-3.141h139.12a3.145,3.145,0,0,1,3.141,3.141v94.252l-.136.058-70.135,29.951A3.419,3.419,0,0,1,730.535,297.7Z" transform="translate(-297.331 -152.906)" fill="#fff"/>
    <path id="Path_13" data-name="Path 13" d="M730.448,297.839a3.622,3.622,0,0,1-1.373-.269l-72.657-30.148V173.086a3.37,3.37,0,0,1,3.366-3.366H798.9a3.37,3.37,0,0,1,3.366,3.366v94.4l-70.407,30.068A3.639,3.639,0,0,1,730.448,297.839Zm-73.132-31.016,72.1,29.918a2.745,2.745,0,0,0,2.095-.012l69.86-29.834V173.086a2.471,2.471,0,0,0-2.468-2.468H659.784a2.471,2.471,0,0,0-2.468,2.468Z" transform="translate(-297.244 -152.819)" fill="#3f3d56"/>
    <path id="Path_14" data-name="Path 14" d="M831.86,274.341h-.09l-51.52,22-70.489,30.1a2.273,2.273,0,0,1-1.741.009L635.3,296.277l-52.785-21.9-.081-.036h-.09a3.145,3.145,0,0,0-3.141,3.141V413.91a3.145,3.145,0,0,0,3.141,3.141H831.86A3.145,3.145,0,0,0,835,413.91V277.482a3.145,3.145,0,0,0-3.141-3.141ZM834.1,413.91a2.245,2.245,0,0,1-2.244,2.244H582.34a2.245,2.245,0,0,1-2.244-2.244V277.482a2.249,2.249,0,0,1,2.159-2.244L635.3,297.246l72.379,30.032a3.2,3.2,0,0,0,2.441-.013l70.135-29.952,51.7-22.075a2.251,2.251,0,0,1,2.154,2.244Z" transform="translate(-275.673 -182.045)" fill="#3f3d56"/>
    <path id="Path_15" data-name="Path 15" d="M722.952,216.1H673.586a3.59,3.59,0,0,1,0-7.18h49.365a3.59,3.59,0,1,1,0,7.18Z" transform="translate(-301.037 -163.771)" fill="#36baff"/>
    <path id="Path_16" data-name="Path 16" d="M697.371,194.931H673.586a3.59,3.59,0,0,1,0-7.18h23.785a3.59,3.59,0,1,1,0,7.18Z" transform="translate(-301.037 -157.856)" fill="#36baff"/>
    <path id="Path_17" data-name="Path 17" d="M778.23,265.923H702.835a3.59,3.59,0,0,1,0-7.18H778.23a3.59,3.59,0,0,1,0,7.18Z" transform="translate(-309.208 -177.688)" fill="#ccc"/>
    <path id="Path_18" data-name="Path 18" d="M778.23,288.964H702.835a3.59,3.59,0,0,1,0-7.18H778.23a3.59,3.59,0,0,1,0,7.18Z" transform="translate(-309.208 -184.124)" fill="#ccc"/>
    <circle id="Ellipse_2" data-name="Ellipse 2" cx="34.138" cy="34.138" r="34.138" transform="translate(520.657 59.459)" fill="#36baff"/>
    <path id="Path_19" data-name="Path 19" d="M761.378,138.714l-10.217-13.138,5.942-4.622,4.838,6.221,16.344-17.253,5.465,5.178Z" transform="translate(-209.837 -30.707)" fill="#fff"/>
    <path id="Path_20" data-name="Path 20" d="M397.3,542.032a7.247,7.247,0,0,1,3.037-10.689l-2.22-25.656,11.765,6.377.3,23.386a7.286,7.286,0,0,1-12.887,6.583Z" transform="translate(-186.552 -162.026)" fill="#9f616a"/>
    <path id="Path_21" data-name="Path 21" d="M395.008,496.67l-.1-.242-12.98-32.792-2.06-62.158.346-.025a19.073,19.073,0,0,1,20.409,18.1l1.9,33.419,5.4,42.981Z" transform="translate(-182.035 -132.895)" fill="#e5e5e5"/>
    <path id="Path_22" data-name="Path 22" d="M127.8,566.348l7.462,4.731,21.8-26.531-11.013-6.982Z" transform="translate(2.256 -65.523)" fill="#9f616a"/>
    <path id="Path_23" data-name="Path 23" d="M282.942,718.718l14.7,9.316h0a11.089,11.089,0,0,1,3.427,15.3l-.193.3-24.06-15.253Z" transform="translate(-153.245 -221.536)" fill="#2f2e41"/>
    <path id="Path_24" data-name="Path 24" d="M225.691,581.94h8.835l4.2-34.078H225.69Z" transform="translate(-25.09 -68.399)" fill="#9f616a"/>
    <path id="Path_25" data-name="Path 25" d="M380.581,737.415h17.4A11.089,11.089,0,0,1,409.069,748.5v.361H380.581Z" transform="translate(-182.233 -226.759)" fill="#2f2e41"/>
    <path id="Path_26" data-name="Path 26" d="M349.019,540.58l20.8,125.106s-4.092,10.229,2.046,11.593,19.777-1.364,19.777-1.364,4.092-10.229-2.046-11.593L378,533.6Z" transform="translate(-173.416 -169.824)" fill="#2f2e41"/>
    <path id="Path_27" data-name="Path 27" d="M342.974,545.587l-14.41,58.5-36.737,53.343s-13.639,1.364-6.138,8.865,10.911,8.184,10.911,8.184,11.593-1.364,10.911-6.819l45.166-53.163,20.984-70.953Z" transform="translate(-155.096 -172.6)" fill="#2f2e41"/>
    <path id="Path_28" data-name="Path 28" d="M346.119,510.983l-3.48-19.859c-5.241-5.477,4.661-19.019,5.765-20.49l-.648-8.421a2.528,2.528,0,0,1-1.436-.782c-3.251-3.315-3.033-16.4-3.022-16.951l-3.587-37.319,8.926-5.207,22.572-.728,11.023,9.553,10.617,97.541-.379.021Z" transform="translate(-170.816 -132.845)" fill="#e5e5e5"/>
    <path id="Path_29" data-name="Path 29" d="M353.781,550.289a7.247,7.247,0,0,1-1.76-10.972L339.174,517l13.358.812,10.151,21.071a7.286,7.286,0,0,1-8.9,11.408Z" transform="translate(-170.666 -165.186)" fill="#9f616a"/>
    <path id="Path_30" data-name="Path 30" d="M338.642,497.594l-11.081-25.687-1.852-52.472a9.439,9.439,0,0,1,4.761-8.549l12.783-7.812,2.758,55.161,8.249,32.968Z" transform="translate(-166.902 -133.361)" fill="#e5e5e5"/>
    <circle id="Ellipse_3" data-name="Ellipse 3" cx="15.86" cy="15.86" r="15.86" transform="translate(175.766 231.684)" fill="#9f616a"/>
    <path id="Path_31" data-name="Path 31" d="M369.569,339.439c-15.973-4.606-20.507,8.633-20.507,8.633-7.7,5.108-2.879,11.512-2.879,11.512-1.943.432,1.942,11.8,3.237,11.513.691-.154,2.468,1.968,3.976,3.98a7.98,7.98,0,0,1,1.54.148L352.011,364.4s9.858-1.51,12.88-6.259c2.892-4.543,12.41-5.978,15.119-2.943a6.85,6.85,0,0,1,.966-2.453,4.9,4.9,0,0,1,1.42-1.424C380,341.147,369.569,339.439,369.569,339.439Z" transform="translate(-172.208 -115.313)" fill="#2f2e41"/>
    <path id="Path_32" data-name="Path 32" d="M195.881,305.139,195,336.711l10.984,23.152-10.1-55.564" transform="translate(-16.515 -0.36)" opacity="0.2"/>
    <path id="Path_33" data-name="Path 33" d="M433.3,753.173H158.737a.721.721,0,0,1,0-1.441H433.3a.721.721,0,1,1,0,1.441Z" transform="translate(-120.059 -230.758)" fill="#3f3d56"/>
    <path id="Path_34" data-name="Path 34" d="M484.319,193.468a1.44,1.44,0,0,0-2.16,1.435l1.113,8.16a.937.937,0,0,1-.024.36.879.879,0,0,1-.171.314l-6.231,7.382a1.408,1.408,0,0,0-.092,1.739l.007.009a1.406,1.406,0,0,0,1.645.542l4.5-1.527a.866.866,0,0,1,.87.2.837.837,0,0,1,.268.616l.176,16.034a1.43,1.43,0,0,0,.63,1.174,1.444,1.444,0,0,0,1.321.154l33.588-12.845a1.44,1.44,0,0,0,.221-2.585l-.457-.272-35.2-20.886Zm-1.592,1.356a.865.865,0,0,1,1.3-.859l35.191,20.88.469.278a.866.866,0,0,1-.132,1.55l-33.587,12.845a.863.863,0,0,1-1.17-.8l-.176-16.034a1.381,1.381,0,0,0-.081-.466l34.2,3.929a.576.576,0,0,0,.346-1.079.5.5,0,0,0-.09-.039L483.851,203.3a1.421,1.421,0,0,0-.01-.318l-1.113-8.16Z" transform="translate(-246.983 -159.397)" fill="#f1f1f1"/>
    <path id="Path_35" data-name="Path 35" d="M484.319,193.468a1.44,1.44,0,0,0-2.16,1.435l1.113,8.16a.937.937,0,0,1-.024.36.879.879,0,0,1-.171.314l-6.231,7.382a1.408,1.408,0,0,0-.092,1.739l.007.009a1.406,1.406,0,0,0,1.645.542l4.5-1.527a.866.866,0,0,1,.87.2.837.837,0,0,1,.268.616l.176,16.034a1.43,1.43,0,0,0,.63,1.174,1.444,1.444,0,0,0,1.321.154l33.588-12.845a1.44,1.44,0,0,0,.221-2.585l-.457-.272-35.2-20.886Zm-1.592,1.356a.865.865,0,0,1,1.3-.859l35.191,20.88.469.278a.866.866,0,0,1-.132,1.55l-33.587,12.845a.863.863,0,0,1-1.17-.8l-.176-16.034a1.38,1.38,0,0,0-.081-.466,1.4,1.4,0,0,0-.369-.564c-.023-.023-.048-.044-.073-.065l0,0a1.436,1.436,0,0,0-1.375-.253l-4.5,1.529a.838.838,0,0,1-.987-.329l0,0a.836.836,0,0,1,.056-1.043l6.231-7.382a1.353,1.353,0,0,0,.172-.252l0,0a1.386,1.386,0,0,0,.11-.272,1.334,1.334,0,0,0,.051-.28,1.421,1.421,0,0,0-.01-.318l-1.113-8.16Z" transform="translate(-246.983 -159.397)" fill="#e5e5e5"/>
    <path id="Path_36" data-name="Path 36" d="M486.58,207.176l35.139,11.729a.505.505,0,0,1,.09.039.576.576,0,0,1-.346,1.079l-34.2-3.929-.6-.069.067-.571.094.009,0,0,34.7,3.984-35.11-11.722,0,0-.152-.052.182-.546Z" transform="translate(-249.712 -163.27)" fill="#e5e5e5"/>
    <path id="Path_37" data-name="Path 37" d="M1017.033,146.468l-35.2,20.886-.457.272a1.439,1.439,0,0,0,.221,2.585l33.587,12.845a1.438,1.438,0,0,0,1.951-1.328l.176-16.034a.837.837,0,0,1,.268-.616.866.866,0,0,1,.87-.2l4.5,1.527a1.406,1.406,0,0,0,1.645-.542l.007-.009a1.408,1.408,0,0,0-.092-1.739l-6.231-7.382a.879.879,0,0,1-.171-.314.935.935,0,0,1-.024-.36l1.112-8.16a1.441,1.441,0,0,0-2.16-1.435Zm1.592,1.356-1.112,8.16a1.425,1.425,0,0,0-.01.318l-35.141,11.73a.5.5,0,0,0-.09.039.576.576,0,0,0,.346,1.079l34.2-3.929a1.375,1.375,0,0,0-.081.466l-.176,16.034a.863.863,0,0,1-1.17.8L981.8,169.673a.866.866,0,0,1-.131-1.55l.468-.278,35.191-20.879a.865.865,0,0,1,1.3.859Z" transform="translate(-387.823 -146.268)" fill="#f1f1f1"/>
    <path id="Path_38" data-name="Path 38" d="M1017.033,146.468l-35.2,20.886-.457.272a1.439,1.439,0,0,0,.221,2.585l33.587,12.845a1.438,1.438,0,0,0,1.951-1.328l.176-16.034a.837.837,0,0,1,.268-.616.866.866,0,0,1,.87-.2l4.5,1.527a1.406,1.406,0,0,0,1.645-.542l.007-.009a1.408,1.408,0,0,0-.092-1.739l-6.231-7.382a.879.879,0,0,1-.171-.314.935.935,0,0,1-.024-.36l1.112-8.16a1.441,1.441,0,0,0-2.16-1.435Zm1.592,1.356-1.112,8.16a1.41,1.41,0,0,0-.01.318,1.342,1.342,0,0,0,.051.28,1.378,1.378,0,0,0,.11.272l0,0a1.361,1.361,0,0,0,.172.252l6.231,7.382a.836.836,0,0,1,.056,1.043l0,0a.837.837,0,0,1-.987.329l-4.5-1.529a1.436,1.436,0,0,0-1.375.253l0,0c-.025.021-.05.042-.073.065a1.4,1.4,0,0,0-.369.564,1.381,1.381,0,0,0-.081.466l-.176,16.034a.864.864,0,0,1-1.17.8L981.8,169.672a.865.865,0,0,1-.132-1.55l.469-.278,35.19-20.879a.865.865,0,0,1,1.3.859Z" transform="translate(-387.823 -146.268)" fill="#e5e5e5"/>
    <path id="Path_39" data-name="Path 39" d="M1018.135,160.131l.182.546-.152.052,0,0-35.11,11.722,34.7-3.984v0l.094-.009.067.571-.6.069-34.2,3.929a.576.576,0,0,1-.345-1.079.5.5,0,0,1,.09-.039L1018,160.176Z" transform="translate(-388.327 -150.14)" fill="#e5e5e5"/>
    <path id="Path_40" data-name="Path 40" d="M612.838,544.128a1.441,1.441,0,0,0,.058,2.593l7.492,3.421a.938.938,0,0,1,.291.213.88.88,0,0,1,.174.313l2.909,9.212a1.408,1.408,0,0,0,1.421,1.007h.011a1.406,1.406,0,0,0,1.337-1.1l1.114-4.62a.866.866,0,0,1,.63-.631.837.837,0,0,1,.664.1l13.646,8.42a1.43,1.43,0,0,0,1.329.095,1.444,1.444,0,0,0,.836-1.034l7.093-35.253a1.44,1.44,0,0,0-2.066-1.568l-.474.241Zm.3,2.07a.865.865,0,0,1-.033-1.557l36.454-18.585.485-.247a.866.866,0,0,1,1.24.94L644.188,562a.864.864,0,0,1-1.3.563l-13.646-8.42a1.378,1.378,0,0,0-.437-.181l21.6-26.8a.576.576,0,0,0-.727-.869.5.5,0,0,0-.081.055L620.9,549.781a1.419,1.419,0,0,0-.275-.161l-7.492-3.421Z" transform="translate(-284.851 -252.105)" fill="#f1f1f1"/>
    <path id="Path_41" data-name="Path 41" d="M612.838,544.128a1.441,1.441,0,0,0,.058,2.593l7.492,3.421a.938.938,0,0,1,.291.213.88.88,0,0,1,.174.313l2.909,9.212a1.408,1.408,0,0,0,1.421,1.007h.011a1.406,1.406,0,0,0,1.337-1.1l1.114-4.62a.866.866,0,0,1,.63-.631.837.837,0,0,1,.664.1l13.646,8.42a1.43,1.43,0,0,0,1.329.095,1.444,1.444,0,0,0,.836-1.034l7.093-35.253a1.44,1.44,0,0,0-2.066-1.568l-.474.241Zm.3,2.07a.865.865,0,0,1-.033-1.557l36.454-18.585.485-.247a.866.866,0,0,1,1.24.94L644.188,562a.863.863,0,0,1-1.3.563l-13.646-8.42a1.384,1.384,0,0,0-.437-.181,1.4,1.4,0,0,0-.674.01c-.031.007-.063.017-.094.027h0a1.436,1.436,0,0,0-.948,1.027l-1.114,4.623a.838.838,0,0,1-.805.658h-.006a.836.836,0,0,1-.852-.6l-2.909-9.212a1.362,1.362,0,0,0-.121-.28v0a1.372,1.372,0,0,0-.171-.238,1.34,1.34,0,0,0-.21-.193,1.414,1.414,0,0,0-.275-.161l-7.492-3.421Z" transform="translate(-284.851 -252.105)" fill="#e5e5e5"/>
    <path id="Path_42" data-name="Path 42" d="M624.287,550.2l28.693-23.432a.5.5,0,0,1,.081-.055.576.576,0,0,1,.727.869l-21.6,26.8-.381.474-.447-.362.057-.074h0l21.913-27.2-28.671,23.411v0l-.125.1-.364-.446Z" transform="translate(-288.238 -252.524)" fill="#e5e5e5"/>
  </g>
</svg>
