<svg xmlns="http://www.w3.org/2000/svg" xmlns:xlink="http://www.w3.org/1999/xlink" width="588" height="883" viewBox="0 0 588 883">
  <defs>
    <filter id="notebook" x="0" y="0" width="588" height="883" filterUnits="userSpaceOnUse">
      <feOffset dx="6" dy="10" input="SourceAlpha"/>
      <feGaussianBlur stdDeviation="4" result="blur"/>
      <feFlood flood-opacity="0.161"/>
      <feComposite operator="in" in2="blur"/>
      <feComposite in="SourceGraphic"/>
    </filter>
  </defs>
  <g transform="matrix(1, 0, 0, 1, 0, 0)" filter="url(#notebook)">
    <path id="notebook-2" data-name="notebook" d="M-2237,859h-524a19.87,19.87,0,0,1-14.142-5.858A19.869,19.869,0,0,1-2781,839V20a19.869,19.869,0,0,1,5.858-14.142A19.87,19.87,0,0,1-2761,0h524a19.869,19.869,0,0,1,14.142,5.858A19.869,19.869,0,0,1-2217,20V839a19.869,19.869,0,0,1-5.858,14.142A19.869,19.869,0,0,1-2237,859Zm-508-110a14.016,14.016,0,0,0-14,14,14.015,14.015,0,0,0,14,14,14.016,14.016,0,0,0,14-14A14.016,14.016,0,0,0-2745,749Zm0-48a14.015,14.015,0,0,0-14,14,14.016,14.016,0,0,0,14,14,14.016,14.016,0,0,0,14-14A14.016,14.016,0,0,0-2745,701Zm0-48a14.015,14.015,0,0,0-14,14,14.016,14.016,0,0,0,14,14,14.016,14.016,0,0,0,14-14A14.016,14.016,0,0,0-2745,653Zm0-48a14.016,14.016,0,0,0-14,14,14.015,14.015,0,0,0,14,14,14.016,14.016,0,0,0,14-14A14.016,14.016,0,0,0-2745,605Zm0-48a14.015,14.015,0,0,0-14,14,14.016,14.016,0,0,0,14,14,14.016,14.016,0,0,0,14-14A14.016,14.016,0,0,0-2745,557Zm0-48a14.015,14.015,0,0,0-14,14,14.016,14.016,0,0,0,14,14,14.016,14.016,0,0,0,14-14A14.016,14.016,0,0,0-2745,509Zm0-48a14.016,14.016,0,0,0-14,14,14.015,14.015,0,0,0,14,14,14.016,14.016,0,0,0,14-14A14.016,14.016,0,0,0-2745,461Zm0-48a14.015,14.015,0,0,0-14,14,14.016,14.016,0,0,0,14,14,14.016,14.016,0,0,0,14-14A14.016,14.016,0,0,0-2745,413Zm0-48a14.016,14.016,0,0,0-14,14,14.016,14.016,0,0,0,14,14,14.016,14.016,0,0,0,14-14A14.016,14.016,0,0,0-2745,365Zm0-48a14.016,14.016,0,0,0-14,14,14.015,14.015,0,0,0,14,14,14.016,14.016,0,0,0,14-14A14.016,14.016,0,0,0-2745,317Zm0-48a14.015,14.015,0,0,0-14,14,14.016,14.016,0,0,0,14,14,14.016,14.016,0,0,0,14-14A14.016,14.016,0,0,0-2745,269Zm0-48a14.015,14.015,0,0,0-14,14,14.016,14.016,0,0,0,14,14,14.016,14.016,0,0,0,14-14A14.016,14.016,0,0,0-2745,221Zm0-48a14.016,14.016,0,0,0-14,14,14.015,14.015,0,0,0,14,14,14.016,14.016,0,0,0,14-14A14.016,14.016,0,0,0-2745,173Zm0-48a14.015,14.015,0,0,0-14,14,14.016,14.016,0,0,0,14,14,14.016,14.016,0,0,0,14-14A14.016,14.016,0,0,0-2745,125Zm0-48a14.015,14.015,0,0,0-14,14,14.016,14.016,0,0,0,14,14,14.016,14.016,0,0,0,14-14A14.016,14.016,0,0,0-2745,77Z" transform="translate(2787 2)" fill="#363636"/>
  </g>
</svg>
