<svg xmlns="http://www.w3.org/2000/svg" width="269.278" height="33" viewBox="0 0 269.278 33">
  <g id="Group_51" data-name="Group 51" transform="translate(-816.751 -5501.845)">
    <text id="Ocean_Academy" data-name="Ocean Academy" transform="translate(976.029 5528.845)" fill="#7bc8f4" font-size="29" font-family="Ubuntu-Bold, Ubuntu" font-weight="700"><tspan x="-109.475" y="0">Ocean Academy</tspan></text>
    <path id="Path_129" data-name="Path 129" d="M58.789,32.563l-3.867-6.576L47.265,12.965,43.786,7.048l-4.332,5.3-2.278,2.785L30.327,23.5h0a6.278,6.278,0,1,1,1.208-2.833l5.258-6.428a12.706,12.706,0,0,0-24.182,5.453,12.877,12.877,0,0,0,12.741,12.87,12.579,12.579,0,0,0,9.982-4.974h0l7.6-9.32,4.538,7.718.1.169H37.453v0s.01.037.033.1c.255.753,1.474,5.933,8.137,6.313H52.41l-.007-.012Z" transform="translate(804.14 5498.719)" fill="#7bc8f4"/>
  </g>
</svg>
